<svg xmlns="http://www.w3.org/2000/svg">
    <g id='logo'>
        <path d="M31.5294 14.2118C31.5294 18.8819 28.7623 22.9082 24.7793 24.7351C26.4612 23.3496 27.5322 21.248 27.5322 18.896C27.5322 14.7642 24.2259 11.4042 20.112 11.3205C20.0574 11.3167 20.0075 11.3167 19.9529 11.3167C19.8983 11.3167 19.8485 11.3167 19.7939 11.3205C18.2673 11.4033 17.0588 12.6663 17.0588 14.2108V28.6814C17.0588 33.4748 13.1699 37.3638 8.37646 37.3638V14.2118C8.37646 7.81928 13.5605 2.63528 19.9529 2.63528C26.3454 2.63528 31.5294 7.81928 31.5294 14.2118Z"/>
        <path d="M21.9992 16.2582C23.1294 15.128 23.1294 13.2956 21.9992 12.1654C20.8689 11.0351 19.0365 11.0351 17.9063 12.1654C16.7761 13.2956 16.7761 15.128 17.9063 16.2582C19.0365 17.3884 20.8689 17.3884 21.9992 16.2582Z"/>
        <path d="M56.4258 22.82V19.98H59.0458C59.5524 19.98 59.9858 19.88 60.3458 19.68C60.7191 19.48 61.0058 19.2 61.2058 18.84C61.4058 18.4667 61.5058 18.04 61.5058 17.56C61.5058 17.0533 61.4058 16.62 61.2058 16.26C61.0058 15.8867 60.7191 15.6067 60.3458 15.42C59.9858 15.22 59.5524 15.12 59.0458 15.12H56.4258V12.28H58.8858C60.1258 12.28 61.1858 12.4867 62.0658 12.9C62.9591 13.3133 63.6391 13.9 64.1058 14.66C64.5858 15.42 64.8258 16.3333 64.8258 17.4V17.72C64.8258 18.76 64.5858 19.6667 64.1058 20.44C63.6391 21.2 62.9591 21.7867 62.0658 22.2C61.1858 22.6133 60.1258 22.82 58.8858 22.82H56.4258ZM53.5458 27V12.28H56.8258V27H53.5458ZM71.1889 27.38C70.2556 27.38 69.4289 27.22 68.7089 26.9C68.0022 26.58 67.4089 26.1533 66.9289 25.62C66.4622 25.0733 66.1022 24.4667 65.8489 23.8C65.6089 23.12 65.4889 22.4267 65.4889 21.72V21.32C65.4889 20.5867 65.6089 19.8867 65.8489 19.22C66.1022 18.54 66.4622 17.9333 66.9289 17.4C67.3956 16.8667 67.9756 16.4467 68.6689 16.14C69.3756 15.82 70.1756 15.66 71.0689 15.66C72.2422 15.66 73.2289 15.9267 74.0289 16.46C74.8422 16.98 75.4622 17.6667 75.8889 18.52C76.3156 19.36 76.5289 20.28 76.5289 21.28V22.36H66.8289V20.54H74.5889L73.5489 21.38C73.5489 20.7267 73.4556 20.1667 73.2689 19.7C73.0822 19.2333 72.8022 18.88 72.4289 18.64C72.0689 18.3867 71.6156 18.26 71.0689 18.26C70.5089 18.26 70.0356 18.3867 69.6489 18.64C69.2622 18.8933 68.9689 19.2667 68.7689 19.76C68.5689 20.24 68.4689 20.8333 68.4689 21.54C68.4689 22.1933 68.5622 22.7667 68.7489 23.26C68.9356 23.74 69.2289 24.1133 69.6289 24.38C70.0289 24.6467 70.5489 24.78 71.1889 24.78C71.7756 24.78 72.2556 24.6667 72.6289 24.44C73.0022 24.2133 73.2556 23.9333 73.3889 23.6H76.3289C76.1689 24.3333 75.8556 24.9867 75.3889 25.56C74.9222 26.1333 74.3356 26.58 73.6289 26.9C72.9222 27.22 72.1089 27.38 71.1889 27.38ZM78.2494 27V16.04H80.7894V20.74H80.7294C80.7294 19.1933 81.056 18 81.7094 17.16C82.376 16.32 83.336 15.9 84.5894 15.9H85.0094V18.66H84.2094C83.3294 18.66 82.6494 18.9 82.1694 19.38C81.6894 19.8467 81.4494 20.5267 81.4494 21.42V27H78.2494ZM90.4273 27.34C88.8673 27.34 87.6473 27.02 86.7673 26.38C85.8873 25.74 85.4207 24.84 85.3673 23.68H88.2073C88.2607 24.0267 88.4673 24.34 88.8273 24.62C89.2007 24.8867 89.754 25.02 90.4873 25.02C91.0473 25.02 91.5073 24.9267 91.8673 24.74C92.2407 24.54 92.4273 24.26 92.4273 23.9C92.4273 23.58 92.2873 23.3267 92.0073 23.14C91.7273 22.94 91.2273 22.8 90.5073 22.72L89.6473 22.64C88.3273 22.5067 87.334 22.14 86.6673 21.54C86.014 20.94 85.6873 20.1733 85.6873 19.24C85.6873 18.4667 85.8807 17.82 86.2673 17.3C86.654 16.78 87.1873 16.3867 87.8673 16.12C88.5607 15.8533 89.3473 15.72 90.2273 15.72C91.6407 15.72 92.7807 16.0333 93.6473 16.66C94.514 17.2733 94.9673 18.1667 95.0073 19.34H92.1673C92.114 18.98 91.9273 18.68 91.6073 18.44C91.2873 18.1867 90.814 18.06 90.1873 18.06C89.694 18.06 89.3007 18.1533 89.0073 18.34C88.714 18.5267 88.5673 18.78 88.5673 19.1C88.5673 19.4067 88.694 19.64 88.9473 19.8C89.2007 19.96 89.614 20.0733 90.1873 20.14L91.0473 20.22C92.394 20.3667 93.4407 20.74 94.1873 21.34C94.934 21.94 95.3073 22.7467 95.3073 23.76C95.3073 24.4933 95.1073 25.1333 94.7073 25.68C94.3073 26.2133 93.7407 26.6267 93.0073 26.92C92.274 27.2 91.414 27.34 90.4273 27.34ZM102.321 27.38C101.361 27.38 100.507 27.2333 99.7606 26.94C99.0139 26.6333 98.3806 26.22 97.8606 25.7C97.3539 25.18 96.9673 24.5867 96.7006 23.92C96.4339 23.24 96.3006 22.5267 96.3006 21.78V21.32C96.3006 20.56 96.4339 19.84 96.7006 19.16C96.9806 18.4667 97.3806 17.86 97.9006 17.34C98.4339 16.82 99.0739 16.4133 99.8206 16.12C100.567 15.8133 101.401 15.66 102.321 15.66C103.267 15.66 104.107 15.8133 104.841 16.12C105.587 16.4133 106.221 16.82 106.741 17.34C107.261 17.86 107.661 18.4667 107.941 19.16C108.221 19.84 108.361 20.56 108.361 21.32V21.78C108.361 22.5267 108.227 23.24 107.961 23.92C107.694 24.5867 107.301 25.18 106.781 25.7C106.274 26.22 105.647 26.6333 104.901 26.94C104.154 27.2333 103.294 27.38 102.321 27.38ZM102.321 24.68C102.947 24.68 103.467 24.5467 103.881 24.28C104.294 24.0133 104.607 23.64 104.821 23.16C105.047 22.68 105.161 22.1467 105.161 21.56C105.161 20.9333 105.047 20.3867 104.821 19.92C104.594 19.44 104.267 19.06 103.841 18.78C103.427 18.5 102.921 18.36 102.321 18.36C101.734 18.36 101.227 18.5 100.801 18.78C100.374 19.06 100.047 19.44 99.8206 19.92C99.6073 20.3867 99.5006 20.9333 99.5006 21.56C99.5006 22.1467 99.6073 22.68 99.8206 23.16C100.034 23.64 100.354 24.0133 100.781 24.28C101.207 24.5467 101.721 24.68 102.321 24.68ZM110.194 27V16.04H112.734V20.74H112.554C112.554 19.62 112.694 18.6867 112.974 17.94C113.267 17.1933 113.707 16.6333 114.294 16.26C114.881 15.8867 115.594 15.7 116.434 15.7H116.574C117.854 15.7 118.827 16.12 119.494 16.96C120.174 17.7867 120.514 19.0467 120.514 20.74V27H117.314V20.56C117.314 19.9733 117.141 19.4933 116.794 19.12C116.447 18.7467 115.981 18.56 115.394 18.56C114.794 18.56 114.307 18.7533 113.934 19.14C113.574 19.5133 113.394 20.0067 113.394 20.62V27H110.194ZM129.461 27V23.76H128.921V20.24C128.921 19.68 128.787 19.26 128.521 18.98C128.254 18.7 127.827 18.56 127.241 18.56C126.947 18.56 126.561 18.5667 126.081 18.58C125.601 18.5933 125.107 18.6133 124.601 18.64C124.094 18.6667 123.634 18.6933 123.221 18.72V16.02C123.527 15.9933 123.887 15.9667 124.301 15.94C124.714 15.9133 125.141 15.8933 125.581 15.88C126.021 15.8667 126.434 15.86 126.821 15.86C127.941 15.86 128.881 16.02 129.641 16.34C130.414 16.66 131.001 17.1467 131.401 17.8C131.801 18.44 132.001 19.2667 132.001 20.28V27H129.461ZM125.961 27.28C125.174 27.28 124.481 27.14 123.881 26.86C123.294 26.58 122.834 26.18 122.501 25.66C122.167 25.1267 122.001 24.4933 122.001 23.76C122.001 22.96 122.207 22.3067 122.621 21.8C123.034 21.28 123.614 20.9 124.361 20.66C125.107 20.4067 125.967 20.28 126.941 20.28H129.281V22.06H126.921C126.361 22.06 125.927 22.2 125.621 22.48C125.327 22.7467 125.181 23.1133 125.181 23.58C125.181 24.02 125.327 24.38 125.621 24.66C125.927 24.9267 126.361 25.06 126.921 25.06C127.281 25.06 127.601 25 127.881 24.88C128.174 24.7467 128.414 24.5267 128.601 24.22C128.787 23.9133 128.894 23.4867 128.921 22.94L129.681 23.74C129.614 24.5 129.427 25.14 129.121 25.66C128.827 26.18 128.414 26.58 127.881 26.86C127.361 27.14 126.721 27.28 125.961 27.28ZM134.456 27V12.4H137.676V27H134.456ZM133.156 14.76V12.4H137.676V14.76H133.156Z"/>
    </g>
    <g id='banner'>
        <!-- width="630" height="630" viewBox="0 0 630 630" fill="none" xmlns="http://www.w3.org/2000/svg" -->
        <path d="M319.826 83.1222C358.155 59.346 445.549 181.982 376.425 252.869C361.053 268.632 356.492 258.993 336.382 262.307C325.055 264.172 320.443 240.269 269.501 255.238C236.011 265.079 240.912 219.127 193.41 229.849C89.6995 253.247 229.345 76.608 319.838 83.1222H319.826Z" fill="#8296E6"/>
        <path fill-rule="evenodd" clip-rule="evenodd" d="M328.23 82.8198C322.799 92.232 308.486 94.311 295.432 90.2538C281.446 85.9068 274.189 70.6986 279.922 57.2292C283.399 49.0518 289.825 42.0084 299.426 38.2536C309.028 34.4988 319.725 38.5182 324.563 47.5272C330.7 58.9554 332.892 74.7684 328.243 82.8324L328.23 82.8198Z" fill="#8296E6"/>
        <path d="M342.896 183.758C344.03 178.076 346.424 173.59 349.461 170.654C353.896 166.37 359.767 165.236 365.173 168.197C368.348 169.936 371.284 173.162 373.64 178.051C371.574 180.268 369.268 181.138 366.786 181.251C361.342 171.184 352.989 174.208 350.481 184.338C347.76 185.044 345.24 184.64 342.896 183.746V183.758Z" fill="#FFF8F5"/>
        <path d="M344.307 178.807C345.592 175.43 347.369 172.683 349.46 170.654C353.895 166.37 359.767 165.236 365.172 168.197C367.062 169.231 368.864 170.793 370.502 172.91C368.007 174.17 365.324 175.279 362.489 176.198C359.2 174.056 355.697 175.052 353.19 178.34C350.128 178.769 347.129 178.92 344.294 178.794L344.307 178.807Z" fill="white" stroke="black" stroke-width="2.52" stroke-miterlimit="10"/>
        <path fill-rule="evenodd" clip-rule="evenodd" d="M328.809 173.426C324.487 167.744 303.924 161.482 300.358 164.279C299.388 183.834 295.507 209.614 291.45 219.618C302.425 223.121 324.198 221.861 333.711 219.379C328.645 209.903 327.826 180.671 328.809 173.414V173.426Z" fill="white" stroke="#020202" stroke-width="2.52" stroke-miterlimit="10"/>
        <path fill-rule="evenodd" clip-rule="evenodd" d="M349.788 136.546C355.206 135.047 360.902 138.575 362.514 144.409C364.127 150.255 361.053 156.202 355.635 157.689C350.217 159.188 344.522 155.66 342.909 149.827C341.296 143.993 344.37 138.033 349.788 136.546Z" fill="white" stroke="#020202" stroke-width="2.52" stroke-miterlimit="10"/>
        <path fill-rule="evenodd" clip-rule="evenodd" d="M300.346 164.279C279.291 175.342 271.945 133.988 298.582 144.963C305.26 134.618 317.469 132.665 318.603 113.929C323.177 113.614 327.65 113.69 332.01 114.269C342.052 115.592 350.506 122.333 354.236 131.758C364.089 156.656 352.787 182.158 336.747 187.551C325.533 191.331 313.147 181.755 300.333 164.291L300.346 164.279Z" fill="white" stroke="#020202" stroke-width="2.52" stroke-miterlimit="10"/>
        <path d="M287.406 152.8C286.738 153.191 285.894 152.977 285.491 152.309C285.1 151.641 285.314 150.797 285.982 150.394C286.234 150.242 286.499 150.104 286.763 149.978C288.628 149.071 290.669 148.768 292.622 149.31C294.563 149.839 296.365 151.187 297.763 153.544C297.94 153.833 298.103 154.148 298.267 154.476C298.494 154.892 298.519 155.408 298.267 155.849C297.889 156.517 297.032 156.744 296.365 156.366C295.533 155.887 294.752 155.572 294.021 155.383C293.29 155.194 292.597 155.156 291.98 155.219C291.211 155.308 290.531 154.753 290.443 153.985C290.354 153.216 290.909 152.536 291.677 152.447C292.093 152.397 292.509 152.384 292.95 152.41C292.61 152.221 292.257 152.069 291.892 151.969C290.632 151.616 289.271 151.843 287.986 152.46C287.797 152.548 287.608 152.649 287.406 152.775V152.8Z" fill="black"/>
        <path d="M299.174 165.022C298.758 164.367 298.96 163.51 299.615 163.107C300.27 162.691 301.127 162.893 301.53 163.548C303.698 166.988 306.318 170.528 309.481 173.905C312.644 177.269 316.335 180.47 320.67 183.217C321.312 183.632 321.514 184.489 321.098 185.132C320.682 185.774 319.826 185.976 319.183 185.56C314.634 182.662 310.766 179.323 307.465 175.808C304.164 172.292 301.442 168.613 299.187 165.035L299.174 165.022Z" fill="black"/>
        <path d="M266.49 183.317C270.308 177.962 274.882 174.422 279.38 172.809C285.97 170.428 292.572 171.99 296.793 177.584C299.275 180.86 300.813 185.573 300.976 191.734C297.801 193.057 295.004 192.893 292.383 191.86C291.438 178.907 281.371 178.151 274.063 187.475C270.913 186.934 268.494 185.359 266.478 183.33L266.49 183.317Z" fill="#FFF8F5"/>
        <path d="M270.258 178.844C273.156 175.946 276.293 173.918 279.393 172.809C285.982 170.428 292.585 171.99 296.806 177.584C298.28 179.537 299.414 181.982 300.132 184.943C296.97 185.094 293.668 184.993 290.304 184.615C287.898 180.86 283.803 180.256 279.682 182.511C276.306 181.528 273.143 180.293 270.258 178.844Z" fill="white" stroke="black" stroke-width="2.52" stroke-miterlimit="10"/>
        <path fill-rule="evenodd" clip-rule="evenodd" d="M321.313 508.271L292.862 507.641L290.871 587.349C315.97 597.227 465.142 600.692 478.75 573.275C372.305 547.558 383.38 461.639 321.313 508.271Z" fill="white" stroke="black" stroke-width="2.52" stroke-miterlimit="10"/>
        <path fill-rule="evenodd" clip-rule="evenodd" d="M438.581 590.008C459.22 586.656 474.781 581.288 478.75 573.275C462.004 569.23 448.157 563.686 436.489 557.411C435.229 561.645 434.549 566.181 434.549 570.893C434.549 577.76 435.998 584.249 438.581 590.008Z" fill="black" stroke="#231F20" stroke-width="2.52" stroke-miterlimit="10"/>
        <path fill-rule="evenodd" clip-rule="evenodd" d="M344.673 586.013L342.682 506.306C351.061 501.593 454.117 466.326 456.889 459.724C448.989 443.482 446.872 422.024 394.09 408.429C657.758 314.156 645.208 569.243 344.673 586.001V586.013Z" fill="#8296E6"/>
        <path fill-rule="evenodd" clip-rule="evenodd" d="M342.922 515.932L342.683 506.318C351.062 501.606 454.117 466.339 456.889 459.736C448.989 443.495 446.872 422.037 394.091 408.442C487.86 374.913 546.664 385.598 570.037 413.998C538.739 467.347 450.803 507.73 342.922 515.92V515.932Z" fill="#8296E6"/>
        <path fill-rule="evenodd" clip-rule="evenodd" d="M296.629 581.83C313.287 561.884 412.89 511.119 406.716 480.186C397.568 434.284 271.593 410.508 236.263 421.583C38.3672 350.847 -26.8756 521.048 156.782 571.927C193.839 582.196 238.052 583.846 296.617 581.83H296.629Z" fill="#8296E6"/>
        <path fill-rule="evenodd" clip-rule="evenodd" d="M390.916 509.972C401.777 499.225 408.467 488.918 406.729 480.186C397.581 434.284 271.606 410.508 236.276 421.583C144.56 388.798 81.3587 407.786 58.2 442.638C106.168 487.28 197.531 517.457 302.375 517.457C333.321 517.457 363.082 514.823 390.916 509.972Z" fill="#8296E6"/>
        <path fill-rule="evenodd" clip-rule="evenodd" d="M314.232 506.936L342.683 506.306L344.674 586.013C319.574 595.892 170.403 599.357 156.795 571.939C263.24 546.223 252.164 460.303 314.232 506.936Z" fill="white" stroke="black" stroke-width="2.52" stroke-miterlimit="10"/>
        <path fill-rule="evenodd" clip-rule="evenodd" d="M196.964 588.672C176.325 585.32 160.764 579.953 156.795 571.939C173.54 567.895 187.388 562.351 199.055 556.076C200.315 560.309 200.996 564.845 200.996 569.558C200.996 576.425 199.547 582.914 196.964 588.672Z" fill="black" stroke="#231F20" stroke-width="2.52" stroke-miterlimit="10"/>
        <path fill-rule="evenodd" clip-rule="evenodd" d="M245.562 519.158C267.751 496.15 279.62 480.929 314.232 506.936C306.206 518.755 290.922 526.743 273.383 526.743C262.963 526.743 253.349 523.921 245.562 519.158Z" fill="black" stroke="#231F20" stroke-width="2.52" stroke-miterlimit="10"/>
        <path d="M345.732 505.084C345.014 505.373 344.208 505.033 343.918 504.315C343.628 503.597 343.968 502.79 344.686 502.501L472.765 450.261C473.484 449.971 474.29 450.311 474.58 451.03C474.87 451.748 474.529 452.554 473.811 452.844L345.732 505.084Z" fill="white"/>
        <path d="M156.681 459.131C155.963 458.854 155.61 458.048 155.887 457.33C156.165 456.611 156.971 456.259 157.689 456.536L263.391 497.536C264.109 497.813 264.462 498.62 264.184 499.338C263.907 500.056 263.101 500.409 262.383 500.132L156.681 459.131Z" fill="white"/>
        <path fill-rule="evenodd" clip-rule="evenodd" d="M359.1 243.155C365.892 233.541 362.175 218.547 359.541 212.638C327.663 211.113 297.637 209.702 272.198 206.212C267.095 212.965 264.021 234.335 269.791 245.965C210.206 255.793 25.9436 418.03 204.045 458.552C519.12 555.534 600.226 345.278 359.088 243.142L359.1 243.155Z" fill="white" stroke="black" stroke-width="2.52" stroke-miterlimit="10"/>
        <path d="M276.128 247.955C275.435 247.628 275.133 246.796 275.461 246.103C275.788 245.41 276.62 245.108 277.313 245.435C282.076 247.666 292.471 249.593 303.156 250.715C314.029 251.849 325.13 252.139 330.838 251.03C331.594 250.891 332.324 251.383 332.463 252.139C332.602 252.895 332.11 253.625 331.354 253.764C325.382 254.923 313.966 254.646 302.853 253.487C291.904 252.34 281.168 250.324 276.116 247.955H276.128Z" fill="black"/>
        <path d="M235.355 297.574C235.469 296.818 236.187 296.289 236.943 296.402C237.699 296.516 238.228 297.234 238.115 297.99L222.34 409.487C222.226 410.243 221.508 410.773 220.752 410.659C220.147 410.571 219.694 410.092 219.593 409.525C219.278 408.379 217.804 405.052 217.363 403.931C213.129 393.158 203.767 385.157 192.78 380.57C181.73 375.971 169.079 374.825 158.306 377.786C156.946 378.164 155.597 378.605 154.262 379.134C153.544 379.411 152.737 379.058 152.46 378.34C152.183 377.622 152.536 376.816 153.254 376.538C154.64 375.997 156.089 375.518 157.588 375.102C168.953 371.977 182.272 373.174 193.864 378C205.002 382.637 214.578 390.65 219.353 401.436L235.381 297.574H235.355Z" fill="black"/>
        <path d="M384.64 306.823C384.488 306.067 384.967 305.336 385.723 305.172C386.479 305.021 387.21 305.5 387.374 306.256L405.102 391.696C405.253 392.452 404.774 393.183 404.018 393.347C403.262 393.511 402.532 393.019 402.368 392.263L384.64 306.823Z" fill="black"/>
        <path fill-rule="evenodd" clip-rule="evenodd" d="M204.057 458.564L221.395 410.684L268.368 421.659L324.564 456.095C321.464 461.462 319.284 465.998 311.371 466.402C315.454 470.32 322.686 471.933 325.433 474.592C321.628 483.714 305.664 481.118 303.408 479.972C289.082 495.243 263.769 477.25 254.13 473.936C248.296 474.516 214.931 471.089 204.07 458.577L204.057 458.564Z" fill="white" stroke="black" stroke-width="2.52" stroke-miterlimit="10"/>
        <path d="M263.491 456.107C262.849 455.692 262.647 454.835 263.063 454.192C263.479 453.55 264.336 453.348 264.978 453.764L304.139 478.8C304.782 479.216 304.983 480.073 304.567 480.715C304.152 481.358 303.295 481.559 302.652 481.144L263.491 456.107Z" fill="black"/>
        <path d="M269.388 441.013C268.771 440.546 268.645 439.677 269.098 439.06C269.564 438.442 270.434 438.316 271.051 438.77C275.612 442.184 286.763 449.417 297.889 456.41C310.716 464.474 323.467 472.185 325.987 473.319C326.693 473.634 327.008 474.453 326.693 475.159C326.378 475.864 325.559 476.179 324.853 475.864C322.207 474.68 309.317 466.88 296.402 458.779C285.201 451.735 273.974 444.452 269.388 441.025V441.013Z" fill="black"/>
        <path d="M276.721 428.413C276.066 428.009 275.852 427.153 276.255 426.497C276.658 425.842 277.515 425.628 278.17 426.031L325.294 454.898C325.95 455.301 326.164 456.158 325.761 456.813C325.357 457.468 324.501 457.682 323.845 457.279L276.721 428.413Z" fill="black"/>
        <path fill-rule="evenodd" clip-rule="evenodd" d="M402.696 245.36C408.026 248.333 410.395 254.23 407.988 258.527C405.594 262.823 399.319 263.894 394.002 260.921C388.672 257.947 386.304 252.05 388.71 247.754C391.117 243.457 397.379 242.386 402.696 245.36Z" fill="white" stroke="black" stroke-width="2.52" stroke-miterlimit="10"/>
        <path fill-rule="evenodd" clip-rule="evenodd" d="M430.933 254.974C422.579 250.916 399.899 249.026 387.312 251.206C380.319 252.416 383.821 266.087 387.841 267.259C384.842 271.82 384.716 279.644 388.786 285.503C386.505 289.787 387.576 298.507 391.671 302.274C395.943 317.092 403.314 317.671 411.554 318.276L411.126 454.066C491.211 452.239 473.609 359.415 447.489 295.47L430.945 254.961L430.933 254.974Z" fill="white" stroke="black" stroke-width="2.52" stroke-miterlimit="10"/>
        <path d="M387.967 268.645C387.198 268.708 386.53 268.141 386.467 267.372C386.404 266.603 386.971 265.936 387.74 265.873C392.062 265.507 397.518 265.721 402.797 266.2C409.601 266.83 416.14 267.901 419.656 268.796C420.399 268.985 420.853 269.741 420.676 270.484C420.5 271.228 419.731 271.681 418.988 271.492C415.548 270.623 409.185 269.564 402.545 268.96C397.429 268.493 392.15 268.292 387.967 268.645Z" fill="black"/>
        <path d="M388.899 286.852C388.131 286.915 387.463 286.348 387.4 285.579C387.337 284.81 387.904 284.143 388.673 284.08C392.919 283.714 397.959 283.928 402.835 284.42C409.337 285.062 415.523 286.209 419.102 287.116C419.845 287.305 420.299 288.061 420.122 288.805C419.933 289.548 419.177 290.002 418.434 289.825C414.944 288.943 408.896 287.834 402.57 287.204C397.871 286.738 392.994 286.524 388.912 286.877L388.899 286.852Z" fill="black"/>
        <path d="M391.659 303.66C390.89 303.66 390.273 303.03 390.273 302.261C390.273 301.493 390.903 300.875 391.671 300.875C396.359 300.901 401.336 301.253 405.935 301.77C411.025 302.35 415.687 303.156 418.976 303.988C419.719 304.177 420.173 304.933 419.996 305.676C419.807 306.419 419.051 306.873 418.308 306.697C415.12 305.89 410.597 305.109 405.645 304.555C401.096 304.038 396.207 303.698 391.671 303.673L391.659 303.66Z" fill="black"/>
        <path fill-rule="evenodd" clip-rule="evenodd" d="M372.935 335.727H572.972L502.74 484.835H302.715L372.935 335.727Z" fill="white"/>
        <path d="M373.174 334.328H575.404L503.862 486.234H300.75C324.589 435.595 348.441 384.955 372.292 334.328H373.174ZM571.007 337.126H374.056L305.147 483.449H502.097L571.007 337.126Z" fill="black"/>
        <path d="M245.737 486.234C244.969 486.234 244.339 485.604 244.339 484.835C244.339 484.067 244.969 483.437 245.737 483.437H502.752C503.521 483.437 504.151 484.067 504.151 484.835C504.151 485.604 503.521 486.234 502.752 486.234H245.737Z" fill="#1A1A1A"/>
        <path d="M438.076 422.15C444.631 422.15 449.945 416.836 449.945 410.281C449.945 403.726 444.631 398.412 438.076 398.412C431.521 398.412 426.207 403.726 426.207 410.281C426.207 416.836 431.521 422.15 438.076 422.15Z" fill="#8296E6"/>
    </g>
    <g id='download'>
        <path d="M17.5 12.5V13.5C17.5 14.9001 17.5 15.6002 17.2275 16.135C16.9878 16.6054 16.6054 16.9878 16.135 17.2275C15.6002 17.5 14.9001 17.5 13.5 17.5H6.5C5.09987 17.5 4.3998 17.5 3.86502 17.2275C3.39462 16.9878 3.01217 16.6054 2.77248 16.135C2.5 15.6002 2.5 14.9001 2.5 13.5V12.5M14.1667 8.33333L10 12.5M10 12.5L5.83333 8.33333M10 12.5V2.5" stroke="white" stroke-width="2" stroke-linecap="round" stroke-linejoin="round" fill='none'/>
    </g>
    <g id='banner'>
        <!-- width="630" height="630" viewBox="0 0 630 630" fill="none" xmlns="http://www.w3.org/2000/svg" -->
        <path d="M319.826 83.1222C358.155 59.346 445.549 181.982 376.425 252.869C361.053 268.632 356.492 258.993 336.382 262.307C325.055 264.172 320.443 240.269 269.501 255.238C236.011 265.079 240.912 219.127 193.41 229.849C89.6995 253.247 229.345 76.608 319.838 83.1222H319.826Z" fill="#8296E6"/>
        <path fill-rule="evenodd" clip-rule="evenodd" d="M328.23 82.8198C322.799 92.232 308.486 94.311 295.432 90.2538C281.446 85.9068 274.189 70.6986 279.922 57.2292C283.399 49.0518 289.825 42.0084 299.426 38.2536C309.028 34.4988 319.725 38.5182 324.563 47.5272C330.7 58.9554 332.892 74.7684 328.243 82.8324L328.23 82.8198Z" fill="#8296E6"/>
        <path d="M342.896 183.758C344.03 178.076 346.424 173.59 349.461 170.654C353.896 166.37 359.767 165.236 365.173 168.197C368.348 169.936 371.284 173.162 373.64 178.051C371.574 180.268 369.268 181.138 366.786 181.251C361.342 171.184 352.989 174.208 350.481 184.338C347.76 185.044 345.24 184.64 342.896 183.746V183.758Z" fill="#FFF8F5"/>
        <path d="M344.307 178.807C345.592 175.43 347.369 172.683 349.46 170.654C353.895 166.37 359.767 165.236 365.172 168.197C367.062 169.231 368.864 170.793 370.502 172.91C368.007 174.17 365.324 175.279 362.489 176.198C359.2 174.056 355.697 175.052 353.19 178.34C350.128 178.769 347.129 178.92 344.294 178.794L344.307 178.807Z" fill="white" stroke="black" stroke-width="2.52" stroke-miterlimit="10"/>
        <path fill-rule="evenodd" clip-rule="evenodd" d="M328.809 173.426C324.487 167.744 303.924 161.482 300.358 164.279C299.388 183.834 295.507 209.614 291.45 219.618C302.425 223.121 324.198 221.861 333.711 219.379C328.645 209.903 327.826 180.671 328.809 173.414V173.426Z" fill="white" stroke="#020202" stroke-width="2.52" stroke-miterlimit="10"/>
        <path fill-rule="evenodd" clip-rule="evenodd" d="M349.788 136.546C355.206 135.047 360.902 138.575 362.514 144.409C364.127 150.255 361.053 156.202 355.635 157.689C350.217 159.188 344.522 155.66 342.909 149.827C341.296 143.993 344.37 138.033 349.788 136.546Z" fill="white" stroke="#020202" stroke-width="2.52" stroke-miterlimit="10"/>
        <path fill-rule="evenodd" clip-rule="evenodd" d="M300.346 164.279C279.291 175.342 271.945 133.988 298.582 144.963C305.26 134.618 317.469 132.665 318.603 113.929C323.177 113.614 327.65 113.69 332.01 114.269C342.052 115.592 350.506 122.333 354.236 131.758C364.089 156.656 352.787 182.158 336.747 187.551C325.533 191.331 313.147 181.755 300.333 164.291L300.346 164.279Z" fill="white" stroke="#020202" stroke-width="2.52" stroke-miterlimit="10"/>
        <path d="M287.406 152.8C286.738 153.191 285.894 152.977 285.491 152.309C285.1 151.641 285.314 150.797 285.982 150.394C286.234 150.242 286.499 150.104 286.763 149.978C288.628 149.071 290.669 148.768 292.622 149.31C294.563 149.839 296.365 151.187 297.763 153.544C297.94 153.833 298.103 154.148 298.267 154.476C298.494 154.892 298.519 155.408 298.267 155.849C297.889 156.517 297.032 156.744 296.365 156.366C295.533 155.887 294.752 155.572 294.021 155.383C293.29 155.194 292.597 155.156 291.98 155.219C291.211 155.308 290.531 154.753 290.443 153.985C290.354 153.216 290.909 152.536 291.677 152.447C292.093 152.397 292.509 152.384 292.95 152.41C292.61 152.221 292.257 152.069 291.892 151.969C290.632 151.616 289.271 151.843 287.986 152.46C287.797 152.548 287.608 152.649 287.406 152.775V152.8Z" fill="black"/>
        <path d="M299.174 165.022C298.758 164.367 298.96 163.51 299.615 163.107C300.27 162.691 301.127 162.893 301.53 163.548C303.698 166.988 306.318 170.528 309.481 173.905C312.644 177.269 316.335 180.47 320.67 183.217C321.312 183.632 321.514 184.489 321.098 185.132C320.682 185.774 319.826 185.976 319.183 185.56C314.634 182.662 310.766 179.323 307.465 175.808C304.164 172.292 301.442 168.613 299.187 165.035L299.174 165.022Z" fill="black"/>
        <path d="M266.49 183.317C270.308 177.962 274.882 174.422 279.38 172.809C285.97 170.428 292.572 171.99 296.793 177.584C299.275 180.86 300.813 185.573 300.976 191.734C297.801 193.057 295.004 192.893 292.383 191.86C291.438 178.907 281.371 178.151 274.063 187.475C270.913 186.934 268.494 185.359 266.478 183.33L266.49 183.317Z" fill="#FFF8F5"/>
        <path d="M270.258 178.844C273.156 175.946 276.293 173.918 279.393 172.809C285.982 170.428 292.585 171.99 296.806 177.584C298.28 179.537 299.414 181.982 300.132 184.943C296.97 185.094 293.668 184.993 290.304 184.615C287.898 180.86 283.803 180.256 279.682 182.511C276.306 181.528 273.143 180.293 270.258 178.844Z" fill="white" stroke="black" stroke-width="2.52" stroke-miterlimit="10"/>
        <path fill-rule="evenodd" clip-rule="evenodd" d="M321.313 508.271L292.862 507.641L290.871 587.349C315.97 597.227 465.142 600.692 478.75 573.275C372.305 547.558 383.38 461.639 321.313 508.271Z" fill="white" stroke="black" stroke-width="2.52" stroke-miterlimit="10"/>
        <path fill-rule="evenodd" clip-rule="evenodd" d="M438.581 590.008C459.22 586.656 474.781 581.288 478.75 573.275C462.004 569.23 448.157 563.686 436.489 557.411C435.229 561.645 434.549 566.181 434.549 570.893C434.549 577.76 435.998 584.249 438.581 590.008Z" fill="black" stroke="#231F20" stroke-width="2.52" stroke-miterlimit="10"/>
        <path fill-rule="evenodd" clip-rule="evenodd" d="M344.673 586.013L342.682 506.306C351.061 501.593 454.117 466.326 456.889 459.724C448.989 443.482 446.872 422.024 394.09 408.429C657.758 314.156 645.208 569.243 344.673 586.001V586.013Z" fill="#8296E6"/>
        <path fill-rule="evenodd" clip-rule="evenodd" d="M342.922 515.932L342.683 506.318C351.062 501.606 454.117 466.339 456.889 459.736C448.989 443.495 446.872 422.037 394.091 408.442C487.86 374.913 546.664 385.598 570.037 413.998C538.739 467.347 450.803 507.73 342.922 515.92V515.932Z" fill="#8296E6"/>
        <path fill-rule="evenodd" clip-rule="evenodd" d="M296.629 581.83C313.287 561.884 412.89 511.119 406.716 480.186C397.568 434.284 271.593 410.508 236.263 421.583C38.3672 350.847 -26.8756 521.048 156.782 571.927C193.839 582.196 238.052 583.846 296.617 581.83H296.629Z" fill="#8296E6"/>
        <path fill-rule="evenodd" clip-rule="evenodd" d="M390.916 509.972C401.777 499.225 408.467 488.918 406.729 480.186C397.581 434.284 271.606 410.508 236.276 421.583C144.56 388.798 81.3587 407.786 58.2 442.638C106.168 487.28 197.531 517.457 302.375 517.457C333.321 517.457 363.082 514.823 390.916 509.972Z" fill="#8296E6"/>
        <path fill-rule="evenodd" clip-rule="evenodd" d="M314.232 506.936L342.683 506.306L344.674 586.013C319.574 595.892 170.403 599.357 156.795 571.939C263.24 546.223 252.164 460.303 314.232 506.936Z" fill="white" stroke="black" stroke-width="2.52" stroke-miterlimit="10"/>
        <path fill-rule="evenodd" clip-rule="evenodd" d="M196.964 588.672C176.325 585.32 160.764 579.953 156.795 571.939C173.54 567.895 187.388 562.351 199.055 556.076C200.315 560.309 200.996 564.845 200.996 569.558C200.996 576.425 199.547 582.914 196.964 588.672Z" fill="black" stroke="#231F20" stroke-width="2.52" stroke-miterlimit="10"/>
        <path fill-rule="evenodd" clip-rule="evenodd" d="M245.562 519.158C267.751 496.15 279.62 480.929 314.232 506.936C306.206 518.755 290.922 526.743 273.383 526.743C262.963 526.743 253.349 523.921 245.562 519.158Z" fill="black" stroke="#231F20" stroke-width="2.52" stroke-miterlimit="10"/>
        <path d="M345.732 505.084C345.014 505.373 344.208 505.033 343.918 504.315C343.628 503.597 343.968 502.79 344.686 502.501L472.765 450.261C473.484 449.971 474.29 450.311 474.58 451.03C474.87 451.748 474.529 452.554 473.811 452.844L345.732 505.084Z" fill="white"/>
        <path d="M156.681 459.131C155.963 458.854 155.61 458.048 155.887 457.33C156.165 456.611 156.971 456.259 157.689 456.536L263.391 497.536C264.109 497.813 264.462 498.62 264.184 499.338C263.907 500.056 263.101 500.409 262.383 500.132L156.681 459.131Z" fill="white"/>
        <path fill-rule="evenodd" clip-rule="evenodd" d="M359.1 243.155C365.892 233.541 362.175 218.547 359.541 212.638C327.663 211.113 297.637 209.702 272.198 206.212C267.095 212.965 264.021 234.335 269.791 245.965C210.206 255.793 25.9436 418.03 204.045 458.552C519.12 555.534 600.226 345.278 359.088 243.142L359.1 243.155Z" fill="white" stroke="black" stroke-width="2.52" stroke-miterlimit="10"/>
        <path d="M276.128 247.955C275.435 247.628 275.133 246.796 275.461 246.103C275.788 245.41 276.62 245.108 277.313 245.435C282.076 247.666 292.471 249.593 303.156 250.715C314.029 251.849 325.13 252.139 330.838 251.03C331.594 250.891 332.324 251.383 332.463 252.139C332.602 252.895 332.11 253.625 331.354 253.764C325.382 254.923 313.966 254.646 302.853 253.487C291.904 252.34 281.168 250.324 276.116 247.955H276.128Z" fill="black"/>
        <path d="M235.355 297.574C235.469 296.818 236.187 296.289 236.943 296.402C237.699 296.516 238.228 297.234 238.115 297.99L222.34 409.487C222.226 410.243 221.508 410.773 220.752 410.659C220.147 410.571 219.694 410.092 219.593 409.525C219.278 408.379 217.804 405.052 217.363 403.931C213.129 393.158 203.767 385.157 192.78 380.57C181.73 375.971 169.079 374.825 158.306 377.786C156.946 378.164 155.597 378.605 154.262 379.134C153.544 379.411 152.737 379.058 152.46 378.34C152.183 377.622 152.536 376.816 153.254 376.538C154.64 375.997 156.089 375.518 157.588 375.102C168.953 371.977 182.272 373.174 193.864 378C205.002 382.637 214.578 390.65 219.353 401.436L235.381 297.574H235.355Z" fill="black"/>
        <path d="M384.64 306.823C384.488 306.067 384.967 305.336 385.723 305.172C386.479 305.021 387.21 305.5 387.374 306.256L405.102 391.696C405.253 392.452 404.774 393.183 404.018 393.347C403.262 393.511 402.532 393.019 402.368 392.263L384.64 306.823Z" fill="black"/>
        <path fill-rule="evenodd" clip-rule="evenodd" d="M204.057 458.564L221.395 410.684L268.368 421.659L324.564 456.095C321.464 461.462 319.284 465.998 311.371 466.402C315.454 470.32 322.686 471.933 325.433 474.592C321.628 483.714 305.664 481.118 303.408 479.972C289.082 495.243 263.769 477.25 254.13 473.936C248.296 474.516 214.931 471.089 204.07 458.577L204.057 458.564Z" fill="white" stroke="black" stroke-width="2.52" stroke-miterlimit="10"/>
        <path d="M263.491 456.107C262.849 455.692 262.647 454.835 263.063 454.192C263.479 453.55 264.336 453.348 264.978 453.764L304.139 478.8C304.782 479.216 304.983 480.073 304.567 480.715C304.152 481.358 303.295 481.559 302.652 481.144L263.491 456.107Z" fill="black"/>
        <path d="M269.388 441.013C268.771 440.546 268.645 439.677 269.098 439.06C269.564 438.442 270.434 438.316 271.051 438.77C275.612 442.184 286.763 449.417 297.889 456.41C310.716 464.474 323.467 472.185 325.987 473.319C326.693 473.634 327.008 474.453 326.693 475.159C326.378 475.864 325.559 476.179 324.853 475.864C322.207 474.68 309.317 466.88 296.402 458.779C285.201 451.735 273.974 444.452 269.388 441.025V441.013Z" fill="black"/>
        <path d="M276.721 428.413C276.066 428.009 275.852 427.153 276.255 426.497C276.658 425.842 277.515 425.628 278.17 426.031L325.294 454.898C325.95 455.301 326.164 456.158 325.761 456.813C325.357 457.468 324.501 457.682 323.845 457.279L276.721 428.413Z" fill="black"/>
        <path fill-rule="evenodd" clip-rule="evenodd" d="M402.696 245.36C408.026 248.333 410.395 254.23 407.988 258.527C405.594 262.823 399.319 263.894 394.002 260.921C388.672 257.947 386.304 252.05 388.71 247.754C391.117 243.457 397.379 242.386 402.696 245.36Z" fill="white" stroke="black" stroke-width="2.52" stroke-miterlimit="10"/>
        <path fill-rule="evenodd" clip-rule="evenodd" d="M430.933 254.974C422.579 250.916 399.899 249.026 387.312 251.206C380.319 252.416 383.821 266.087 387.841 267.259C384.842 271.82 384.716 279.644 388.786 285.503C386.505 289.787 387.576 298.507 391.671 302.274C395.943 317.092 403.314 317.671 411.554 318.276L411.126 454.066C491.211 452.239 473.609 359.415 447.489 295.47L430.945 254.961L430.933 254.974Z" fill="white" stroke="black" stroke-width="2.52" stroke-miterlimit="10"/>
        <path d="M387.967 268.645C387.198 268.708 386.53 268.141 386.467 267.372C386.404 266.603 386.971 265.936 387.74 265.873C392.062 265.507 397.518 265.721 402.797 266.2C409.601 266.83 416.14 267.901 419.656 268.796C420.399 268.985 420.853 269.741 420.676 270.484C420.5 271.228 419.731 271.681 418.988 271.492C415.548 270.623 409.185 269.564 402.545 268.96C397.429 268.493 392.15 268.292 387.967 268.645Z" fill="black"/>
        <path d="M388.899 286.852C388.131 286.915 387.463 286.348 387.4 285.579C387.337 284.81 387.904 284.143 388.673 284.08C392.919 283.714 397.959 283.928 402.835 284.42C409.337 285.062 415.523 286.209 419.102 287.116C419.845 287.305 420.299 288.061 420.122 288.805C419.933 289.548 419.177 290.002 418.434 289.825C414.944 288.943 408.896 287.834 402.57 287.204C397.871 286.738 392.994 286.524 388.912 286.877L388.899 286.852Z" fill="black"/>
        <path d="M391.659 303.66C390.89 303.66 390.273 303.03 390.273 302.261C390.273 301.493 390.903 300.875 391.671 300.875C396.359 300.901 401.336 301.253 405.935 301.77C411.025 302.35 415.687 303.156 418.976 303.988C419.719 304.177 420.173 304.933 419.996 305.676C419.807 306.419 419.051 306.873 418.308 306.697C415.12 305.89 410.597 305.109 405.645 304.555C401.096 304.038 396.207 303.698 391.671 303.673L391.659 303.66Z" fill="black"/>
        <path fill-rule="evenodd" clip-rule="evenodd" d="M372.935 335.727H572.972L502.74 484.835H302.715L372.935 335.727Z" fill="white"/>
        <path d="M373.174 334.328H575.404L503.862 486.234H300.75C324.589 435.595 348.441 384.955 372.292 334.328H373.174ZM571.007 337.126H374.056L305.147 483.449H502.097L571.007 337.126Z" fill="black"/>
        <path d="M245.737 486.234C244.969 486.234 244.339 485.604 244.339 484.835C244.339 484.067 244.969 483.437 245.737 483.437H502.752C503.521 483.437 504.151 484.067 504.151 484.835C504.151 485.604 503.521 486.234 502.752 486.234H245.737Z" fill="#1A1A1A"/>
        <path d="M438.076 422.15C444.631 422.15 449.945 416.836 449.945 410.281C449.945 403.726 444.631 398.412 438.076 398.412C431.521 398.412 426.207 403.726 426.207 410.281C426.207 416.836 431.521 422.15 438.076 422.15Z" fill="#8296E6"/>
    </g>
    <g id='discord'>
        <path d="M8.23997 8.39001C7.66997 8.39001 7.21997 8.89001 7.21997 9.50001C7.21997 10.11 7.67997 10.61 8.23997 10.61C8.80997 10.61 9.25997 10.11 9.25997 9.50001C9.26997 8.89001 8.80997 8.39001 8.23997 8.39001ZM11.89 8.39001C11.32 8.39001 10.87 8.89001 10.87 9.50001C10.87 10.11 11.33 10.61 11.89 10.61C12.46 10.61 12.91 10.11 12.91 9.50001C12.91 8.89001 12.46 8.39001 11.89 8.39001Z" fill="currentColor"/>
        <path d="M16.75 0H3.35005C2.22005 0 1.30005 0.92 1.30005 2.06V15.58C1.30005 16.72 2.22005 17.64 3.35005 17.64H14.69L14.16 15.79L15.44 16.98L16.65 18.1L18.8 20V2.06C18.8 0.92 17.88 0 16.75 0ZM12.89 13.06C12.89 13.06 12.53 12.63 12.23 12.25C13.54 11.88 14.04 11.06 14.04 11.06C13.63 11.33 13.24 11.52 12.89 11.65C12.39 11.86 11.91 12 11.44 12.08C10.48 12.26 9.60005 12.21 8.85005 12.07C8.28005 11.96 7.79005 11.8 7.38005 11.64C7.15005 11.55 6.90005 11.44 6.65005 11.3C6.62005 11.28 6.59005 11.27 6.56005 11.25C6.54005 11.24 6.53005 11.23 6.52005 11.22C6.34005 11.12 6.24005 11.05 6.24005 11.05C6.24005 11.05 6.72005 11.85 7.99005 12.23C7.69005 12.61 7.32005 13.06 7.32005 13.06C5.11005 12.99 4.27005 11.54 4.27005 11.54C4.27005 8.32 5.71005 5.71 5.71005 5.71C7.15005 4.63 8.52005 4.66 8.52005 4.66L8.62005 4.78C6.82005 5.3 5.99005 6.09 5.99005 6.09C5.99005 6.09 6.21005 5.97 6.58005 5.8C7.65005 5.33 8.50005 5.2 8.85005 5.17C8.91005 5.16 8.96005 5.15 9.02005 5.15C9.63005 5.07 10.32 5.05 11.04 5.13C11.99 5.24 13.01 5.52 14.05 6.09C14.05 6.09 13.26 5.34 11.5601 4.82L11.7 4.66C11.7 4.66 13.07 4.63 14.51 5.71C14.51 5.71 15.95 8.32 15.95 11.54C15.95 11.54 15.1 12.99 12.89 13.06Z" fill="currentColor"/>
    </g>
    <g id='reddit'>
        <path fill-rule="evenodd" clip-rule="evenodd" d="M20 10C20 15.5228 15.5228 20 10 20C4.47715 20 0 15.5228 0 10C0 4.47715 4.47715 0 10 0C15.5228 0 20 4.47715 20 10ZM15.2047 8.53799C16.0117 8.53799 16.6667 9.19296 16.6667 9.99998C16.6667 10.5965 16.3041 11.1111 15.8246 11.345C15.848 11.4854 15.8597 11.6257 15.8597 11.7778C15.8597 14.0234 13.2515 15.8362 10.0234 15.8362C6.79533 15.8362 4.18714 14.0234 4.18714 11.7778C4.18714 11.6257 4.19884 11.4737 4.22223 11.3333C3.70761 11.0994 3.35673 10.5965 3.35673 9.99998C3.35673 9.19296 4.0117 8.53799 4.81872 8.53799C5.20468 8.53799 5.56726 8.70173 5.82457 8.94735C6.83041 8.21051 8.22223 7.75437 9.77778 7.70758L10.5146 4.2222C10.538 4.15203 10.5731 4.09355 10.6316 4.05846C10.6901 4.02337 10.7602 4.01168 10.8304 4.02337L13.2515 4.53799C13.4152 4.18711 13.7661 3.9532 14.1754 3.9532C14.7485 3.9532 15.2164 4.42103 15.2164 4.99413C15.2164 5.56723 14.7485 6.03507 14.1754 6.03507C13.614 6.03507 13.1579 5.59062 13.1345 5.04092L10.9708 4.58478L10.3041 7.70758C11.8246 7.76606 13.2047 8.2339 14.1988 8.94735C14.4561 8.69004 14.807 8.53799 15.2047 8.53799ZM7.70761 9.99998C7.13451 9.99998 6.66667 10.4678 6.66667 11.0409C6.66667 11.614 7.13451 12.0819 7.70761 12.0819C8.28071 12.0819 8.74854 11.614 8.74854 11.0409C8.74854 10.4678 8.28071 9.99998 7.70761 9.99998ZM10.0117 14.5497C10.4094 14.5497 11.7661 14.5029 12.4795 13.7895C12.5848 13.6842 12.5848 13.5204 12.5029 13.4035C12.3977 13.2982 12.2222 13.2982 12.117 13.4035C11.6608 13.8479 10.7135 14.0117 10.0234 14.0117C9.33334 14.0117 8.37427 13.8479 7.92983 13.4035C7.82457 13.2982 7.64913 13.2982 7.54386 13.4035C7.4386 13.5088 7.4386 13.6842 7.54386 13.7895C8.24562 14.4912 9.61404 14.5497 10.0117 14.5497ZM11.2515 11.0409C11.2515 11.614 11.7193 12.0819 12.2924 12.0819C12.8655 12.0819 13.3333 11.614 13.3333 11.0409C13.3333 10.4678 12.8655 9.99998 12.2924 9.99998C11.7193 9.99998 11.2515 10.4678 11.2515 11.0409Z" fill="currentColor"/>
    </g>
    <g id='twitter'>
        <path d="M6.2918 18.125C13.8371 18.125 17.9652 11.8723 17.9652 6.45155C17.9652 6.27577 17.9613 6.09608 17.9535 5.9203C18.7566 5.33955 19.4496 4.62021 20 3.79608C19.2521 4.12883 18.458 4.34615 17.6449 4.44061C18.5011 3.92742 19.1421 3.12123 19.4492 2.17147C18.6438 2.6488 17.763 2.98551 16.8445 3.16718C16.2257 2.50963 15.4075 2.07426 14.5164 1.92838C13.6253 1.78249 12.711 1.93421 11.9148 2.36008C11.1186 2.78595 10.4848 3.46225 10.1115 4.28443C9.73825 5.1066 9.64619 6.02885 9.84961 6.90858C8.21874 6.82674 6.62328 6.40309 5.16665 5.66508C3.71002 4.92708 2.42474 3.8912 1.39414 2.6246C0.870333 3.5277 0.710047 4.59637 0.945859 5.61341C1.18167 6.63045 1.79589 7.51954 2.66367 8.09999C2.01219 8.0793 1.37498 7.9039 0.804688 7.58827V7.63905C0.804104 8.58679 1.13175 9.50549 1.73192 10.239C2.3321 10.9725 3.16777 11.4755 4.09687 11.6625C3.49338 11.8276 2.85999 11.8517 2.2457 11.7328C2.50788 12.5479 3.01798 13.2607 3.70481 13.7719C4.39164 14.2831 5.22093 14.5672 6.07695 14.5844C4.62369 15.7259 2.82848 16.3451 0.980469 16.3422C0.652739 16.3417 0.325333 16.3216 0 16.282C1.87738 17.4865 4.06128 18.1262 6.2918 18.125Z" fill="currentColor"/>
    </g>
    <g id='facebook'>
        <g clip-path="url(#clip0_43_831)">
            <path d="M20 10C20 4.47715 15.5229 0 10 0C4.47715 0 0 4.47715 0 10C0 14.9912 3.65684 19.1283 8.4375 19.8785V12.8906H5.89844V10H8.4375V7.79688C8.4375 5.29063 9.93047 3.90625 12.2146 3.90625C13.3084 3.90625 14.4531 4.10156 14.4531 4.10156V6.5625H13.1922C11.95 6.5625 11.5625 7.3334 11.5625 8.125V10H14.3359L13.8926 12.8906H11.5625V19.8785C16.3432 19.1283 20 14.9912 20 10Z" fill="currentColor"/>
        </g>
        <defs>
            <clipPath id="clip0_43_831">
                <rect width="20" height="20" fill="currentColor"/>
            </clipPath>
        </defs>
    </g>
    <g id='git'>
        <path d="M49.2333 25.7833L30.2166 6.76659C29.6333 6.18325 28.8166 5.83325 27.9999 5.83325C27.1833 5.83325 26.3666 6.18325 25.7833 6.76659L21.6999 10.8499L26.4833 15.6333C26.9499 15.3999 27.4166 15.2833 27.9999 15.2833C29.9833 15.2833 31.4999 16.7999 31.4999 18.7833C31.4999 19.3666 31.3833 19.8333 31.1499 20.2999L35.8166 24.9666C36.2833 24.7333 36.7499 24.6166 37.3333 24.6166C39.3166 24.6166 40.8333 26.1333 40.8333 28.1166C40.8333 30.0999 39.3166 31.6166 37.3333 31.6166C35.3499 31.6166 33.8333 30.0999 33.8333 28.1166C33.8333 27.5333 33.9499 27.0666 34.1833 26.5999L29.5166 21.9333C29.3999 21.9333 29.2833 22.0499 29.1666 22.0499V34.1833C30.5666 34.6499 31.4999 35.9333 31.4999 37.4499C31.4999 39.4333 29.9833 40.9499 27.9999 40.9499C26.0166 40.9499 24.4999 39.4333 24.4999 37.4499C24.4999 35.9333 25.4333 34.6499 26.8333 34.1833V21.9333C25.4333 21.4666 24.4999 20.1833 24.4999 18.6666C24.4999 18.0833 24.6166 17.6166 24.8499 17.1499L20.0666 12.3666L6.76659 25.7833C6.18325 26.3666 5.83325 27.1833 5.83325 27.9999C5.83325 28.8166 6.18325 29.6333 6.76659 30.2166L25.7833 49.2333C26.3666 49.8166 27.1833 50.1666 27.9999 50.1666C28.8166 50.1666 29.6333 49.8166 30.2166 49.2333L49.2333 30.2166C49.8166 29.6333 50.1666 28.8166 50.1666 27.9999C50.1666 27.1833 49.8166 26.3666 49.2333 25.7833Z" fill="black"/>
    </g>
    <g id='js'>
        <path d="M0 56V0H56V56H0Z" fill="black"/>
        <path d="M36.6147 41.9176C37.6912 43.666 38.861 45.3414 41.339 45.3414C43.4203 45.3414 44.5123 44.3069 44.5123 42.8758C44.5123 41.1631 43.383 40.5549 41.0932 39.5578L39.8378 39.0227C36.215 37.4858 33.8054 35.56 33.8054 31.4923C33.8054 27.7434 36.6754 24.8905 41.1601 24.8905C44.3536 24.8905 46.6481 25.9965 48.3032 28.8929L44.3925 31.3927C43.5323 29.8558 42.6021 29.2507 41.1601 29.2507C39.6885 29.2507 38.7567 30.1794 38.7567 31.3927C38.7567 32.8922 39.6901 33.4989 41.8445 34.4276L43.0998 34.9627C47.3698 36.7811 49.7778 38.6385 49.7778 42.8136C49.7778 47.3122 46.225 49.7778 41.4556 49.7778C36.7905 49.7778 34.1414 47.4367 32.6667 44.5387L36.6147 41.9176ZM18.5921 42.0451C19.3792 43.4545 20.5754 44.5387 22.2958 44.5387C23.9416 44.5387 24.889 43.8885 24.889 41.3607V24.8889H30.0736V42.1571C30.0736 47.3947 27.0356 49.7778 22.5992 49.7778C18.5905 49.7778 15.6972 47.0618 14.5181 44.5387L18.5921 42.0451Z" fill="white"/>
    </g>
    <g id='nextjs'>
        <g clip-path="url(#clip0_196_515)">
            <mask id="mask0_196_515" style="mask-type:alpha" maskUnits="userSpaceOnUse" x="0" y="0" width="56" height="56">
                <path d="M28 56C43.464 56 56 43.464 56 28C56 12.536 43.464 0 28 0C12.536 0 0 12.536 0 28C0 43.464 12.536 56 28 56Z" fill="black"/>
            </mask>
            <g mask="url(#mask0_196_515)">
                <path d="M28 55.0667C42.9485 55.0667 55.0667 42.9485 55.0667 28C55.0667 13.0515 42.9485 0.93335 28 0.93335C13.0515 0.93335 0.93335 13.0515 0.93335 28C0.93335 42.9485 13.0515 55.0667 28 55.0667Z" fill="black" stroke="white" stroke-width="6"/>
                <path d="M46.5136 49.0063L21.5109 16.8H16.8V39.1907H20.5687V21.5861L43.5553 51.2852C44.5925 50.5911 45.5806 49.8292 46.5136 49.0063Z" fill="url(#paint0_linear_196_515)"/>
                <path d="M39.5112 16.8H35.7778V39.2H39.5112V16.8Z" fill="url(#paint1_linear_196_515)"/>
            </g>
        </g>
        <defs>
            <linearGradient id="paint0_linear_196_515" x1="33.9112" y1="36.2445" x2="44.9556" y2="49.9334" gradientUnits="userSpaceOnUse">
                <stop stop-color="white"/>
                <stop offset="1" stop-color="white" stop-opacity="0"/>
            </linearGradient>
            <linearGradient id="paint1_linear_196_515" x1="37.6445" y1="16.8" x2="37.582" y2="33.25" gradientUnits="userSpaceOnUse">
                <stop stop-color="white"/>
                <stop offset="1" stop-color="white" stop-opacity="0"/>
            </linearGradient>
            <clipPath id="clip0_196_515">
                <rect width="56" height="56" fill="white"/>
            </clipPath>
        </defs>
    </g>
    <g id='react'>
        <g clip-path="url(#clip0_196_513)" fill='none'>
            <path d="M28.0001 31.5026C30.9456 31.5026 33.3334 29.039 33.3334 26C33.3334 22.9609 30.9456 20.4973 28.0001 20.4973C25.0546 20.4973 22.6667 22.9609 22.6667 26C22.6667 29.039 25.0546 31.5026 28.0001 31.5026Z" fill="black"/>
            <path d="M27.9999 38.381C42.7275 38.381 54.6666 32.8379 54.6666 26.0001C54.6666 19.1623 42.7275 13.6191 27.9999 13.6191C13.2723 13.6191 1.33325 19.1623 1.33325 26.0001C1.33325 32.8379 13.2723 38.381 27.9999 38.381Z" stroke="black" stroke-width="3"/>
            <path d="M17.6076 32.1905C24.9714 45.3499 35.5937 53.2461 41.3332 49.8272C47.0727 46.4083 45.756 32.969 38.3922 19.8096C31.0284 6.6502 20.406 -1.24601 14.6665 2.1729C8.92702 5.59181 10.2438 19.0312 17.6076 32.1905Z" stroke="black" stroke-width="3"/>
            <path d="M17.6076 19.8095C10.2438 32.9689 8.9271 46.4082 14.6666 49.8271C20.4061 53.246 31.0285 45.3498 38.3923 32.1904C45.756 19.0311 47.0728 5.59171 41.3333 2.1728C35.5938 -1.2461 24.9714 6.65011 17.6076 19.8095Z" stroke="black" stroke-width="3"/>
        </g>
        <defs>
            <clipPath id="clip0_196_513">
                <rect width="56" height="52" fill="white"/>
            </clipPath>
        </defs>
    </g>
    <g id='typescript'>
        <g clip-path="url(#clip0_196_512)">
            <path d="M53.375 0H2.625C1.17525 0 0 1.17525 0 2.625V53.375C0 54.8247 1.17525 56 2.625 56H53.375C54.8247 56 56 54.8247 56 53.375V2.625C56 1.17525 54.8247 0 53.375 0Z" fill="black"/>
            <path fill-rule="evenodd" clip-rule="evenodd" d="M32.4897 43.5173V49.6536C33.4839 50.1646 34.6596 50.5483 36.0171 50.8038C37.3745 51.0597 38.8052 51.1875 40.3092 51.1875C41.7749 51.1875 43.1673 51.0471 44.4863 50.7658C45.8058 50.4844 46.9621 50.0211 47.9566 49.3754C48.9506 48.7296 49.7376 47.8861 50.3177 46.844C50.8974 45.8023 51.1875 44.5143 51.1875 42.9803C51.1875 41.8681 51.0217 40.8934 50.6905 40.056C50.3589 39.2187 49.8811 38.4741 49.2564 37.8221C48.6321 37.1701 47.8831 36.5852 47.0103 36.0675C46.137 35.5498 45.1526 35.0608 44.0562 34.6006C43.2533 34.2682 42.5332 33.9454 41.896 33.6322C41.2587 33.319 40.717 32.9994 40.2709 32.6734C39.8248 32.3474 39.4807 32.0023 39.2385 31.6379C38.9963 31.2736 38.8752 30.8613 38.8752 30.4011C38.8752 29.9792 38.9836 29.5989 39.2003 29.2601C39.417 28.9214 39.7229 28.6305 40.118 28.3876C40.5131 28.1448 40.9974 27.9562 41.5709 27.822C42.1445 27.6877 42.7818 27.6206 43.4828 27.6206C43.9928 27.6206 44.5309 27.659 45.0984 27.7357C45.6654 27.8124 46.2359 27.9306 46.8094 28.0904C47.383 28.2502 47.9404 28.4515 48.4824 28.6944C49.0241 28.9373 49.5241 29.2186 49.9831 29.5382V23.8047C49.0525 23.4467 48.0362 23.1815 46.9337 23.0089C45.8312 22.8363 44.5664 22.75 43.1386 22.75C41.6857 22.75 40.3091 22.9066 39.0091 23.2198C37.709 23.533 36.5651 24.022 35.5773 24.6867C34.5895 25.3515 33.8089 26.1984 33.2353 27.2275C32.6618 28.2566 32.375 29.487 32.375 30.9188C32.375 32.7469 32.9007 34.3065 33.9523 35.5977C35.0038 36.8889 36.6002 37.9819 38.7414 38.8767C39.5826 39.2219 40.3665 39.5607 41.093 39.893C41.8195 40.2254 42.4472 40.5706 42.9762 40.9285C43.5051 41.2865 43.9224 41.6764 44.2282 42.0982C44.5344 42.5201 44.6871 42.9995 44.6871 43.5364C44.6871 43.9329 44.5918 44.3004 44.4006 44.639C44.2094 44.9776 43.9193 45.2716 43.5306 45.521C43.1418 45.7704 42.6575 45.9655 42.0776 46.1059C41.4977 46.2464 40.819 46.3168 40.0415 46.3168C38.7159 46.3168 37.4031 46.0836 36.1031 45.6168C34.803 45.1504 33.5986 44.4504 32.4897 43.5173ZM22.1824 28.2425H30.1875V23.1875H7.875V28.2425H15.841V50.75H22.1824V28.2425Z" fill="white"/>
        </g>
        <defs>
            <clipPath id="clip0_196_512">
                <rect width="56" height="56" fill="white"/>
            </clipPath>
        </defs>
    </g>
    <g id='nodejs'>
        <g clip-path="url(#clip0_196_514)">
            <path d="M24.727 55.9999C23.9763 55.9999 23.2756 55.7958 22.6249 55.4386L15.9685 51.4076C14.9676 50.8463 15.468 50.6423 15.7684 50.5402C17.1197 50.081 17.3699 49.9789 18.7712 49.1625C18.9214 49.0604 19.1215 49.1115 19.2717 49.2135L24.3766 52.3261C24.5768 52.4282 24.8271 52.4282 24.9772 52.3261L44.9464 40.5392C45.1466 40.4371 45.2467 40.2331 45.2467 39.9779V16.4552C45.2467 16.2001 45.1466 15.996 44.9464 15.8939L24.9772 4.15808C24.777 4.05603 24.5267 4.05603 24.3766 4.15808L4.40741 15.8939C4.20723 15.996 4.10712 16.2511 4.10712 16.4552V39.9779C4.10712 40.182 4.20723 40.4371 4.40741 40.5392L9.86267 43.7538C12.8155 45.2845 14.6673 43.4987 14.6673 41.7128V18.4962C14.6673 18.19 14.9175 17.884 15.2679 17.884H17.8203C18.1206 17.884 18.4209 18.1391 18.4209 18.4962V41.7128C18.4209 45.7438 16.2688 48.091 12.5152 48.091C11.3641 48.091 10.4633 48.091 7.91076 46.8153L2.65573 43.7538C1.35448 42.9884 0.553711 41.5597 0.553711 40.029V16.5062C0.553711 14.9755 1.35448 13.5468 2.65573 12.7814L22.6249 0.994506C23.8762 0.280152 25.5778 0.280152 26.829 0.994506L46.7982 12.7814C48.0994 13.5468 48.9002 14.9755 48.9002 16.5062V40.029C48.9002 41.5597 48.0994 42.9884 46.7982 43.7538L26.829 55.5407C26.2284 55.7958 25.4777 55.9999 24.727 55.9999Z" fill="black"/>
            <path d="M30.933 39.8249C22.1745 39.8249 20.3728 35.7429 20.3728 32.2732C20.3728 31.9671 20.623 31.6609 20.9733 31.6609H23.5759C23.8761 31.6609 24.1264 31.865 24.1264 32.1712C24.5268 34.8755 25.6779 36.2022 30.983 36.2022C35.187 36.2022 36.9888 35.2327 36.9888 32.9365C36.9888 31.6099 36.4883 30.6404 29.9319 29.977C24.4767 29.4157 21.0735 28.1912 21.0735 23.7519C21.0735 19.6189 24.4767 17.1697 30.1822 17.1697C36.5884 17.1697 39.7414 19.4148 40.1418 24.3132C40.1418 24.4663 40.0917 24.6194 39.9917 24.7725C39.8916 24.8745 39.7414 24.9766 39.5912 24.9766H36.9387C36.6884 24.9766 36.4382 24.7725 36.3882 24.5173C35.7876 21.7109 34.2361 20.7925 30.1322 20.7925C25.5277 20.7925 24.9772 22.4253 24.9772 23.6499C24.9772 25.1296 25.6279 25.5889 31.8338 26.4053C37.9897 27.2217 40.8925 28.3953 40.8925 32.7835C40.8925 37.2737 37.239 39.8249 30.933 39.8249Z" fill="black"/>
        </g>
        <defs>
            <clipPath id="clip0_196_514">
                <rect width="49.28" height="56" fill="white"/>
            </clipPath>
        </defs>
    </g>
    <g id='Sass'>
        <path d="M46.5116 30.282C44.7172 30.2913 43.1632 30.7218 41.8612 31.3646C41.3852 30.4138 40.9022 29.5773 40.8217 28.9555C40.7272 28.2298 40.6176 27.7958 40.7319 26.9313C40.8462 26.0668 41.3467 24.8418 41.3397 24.7496C41.3327 24.6575 41.2277 24.2176 40.1929 24.2095C39.1581 24.2025 38.2726 24.409 38.1687 24.682C38.0649 24.955 37.8654 25.5698 37.7417 26.2115C37.5609 27.1495 35.6756 30.4966 34.6057 32.2466C34.2557 31.563 33.9582 30.961 33.8964 30.485C33.8019 29.7593 33.6922 29.3253 33.8066 28.4608C33.9209 27.5963 34.4214 26.3713 34.4144 26.2791C34.4074 26.187 34.3024 25.7471 33.2676 25.739C32.2327 25.732 31.3472 25.9385 31.2434 26.2115C31.1396 26.4845 31.0276 27.1226 30.8164 27.741C30.6041 28.3581 28.0992 33.9406 27.4424 35.3885C27.1076 36.1258 26.8171 36.7185 26.6117 37.1221L26.6106 37.1198C26.6106 37.1198 26.5977 37.1466 26.5767 37.1921C26.4006 37.5363 26.2967 37.7265 26.2967 37.7265C26.2967 37.7265 26.2979 37.7288 26.3002 37.7335C26.1602 37.9866 26.0109 38.2211 25.9374 38.2211C25.8861 38.2211 25.7822 37.548 25.9596 36.624C26.3329 34.6873 27.2277 31.668 27.2196 31.563C27.2149 31.5093 27.3864 30.9831 26.6351 30.7078C25.9047 30.4406 25.6446 30.8863 25.5781 30.8875C25.5139 30.8886 25.4661 31.045 25.4661 31.045C25.4661 31.045 26.2792 27.6488 23.9144 27.6488C22.4351 27.6488 20.3864 29.267 19.3772 30.7335C18.7402 31.0811 17.3764 31.8255 15.9309 32.62C15.3756 32.9256 14.8086 33.2371 14.2707 33.5335C14.2346 33.4926 14.1972 33.453 14.1599 33.4121C11.2911 30.352 5.98974 28.1878 6.21374 24.073C6.29541 22.5773 6.81574 18.6386 16.4022 13.8623C24.2551 9.94931 30.5422 11.0261 31.6284 13.412C33.1801 16.8221 28.2684 23.1583 20.1134 24.073C17.0066 24.4218 15.3697 23.2166 14.9626 22.7686C14.5344 22.2961 14.4702 22.2751 14.3104 22.3638C14.0502 22.5085 14.2147 22.925 14.3104 23.1735C14.5542 23.807 15.5529 24.9305 17.2562 25.4905C18.7554 25.9828 22.4036 26.2523 26.8147 24.5455C31.7567 22.6345 35.6149 17.3168 34.4809 12.873C33.3282 8.35331 25.8336 6.86698 18.7402 9.38698C14.5134 10.8873 9.94357 13.2416 6.65707 16.3146C2.7499 19.9686 2.12691 23.1501 2.38357 24.479C3.29591 29.2016 9.80474 32.277 12.4111 34.5555C12.2827 34.6266 12.1614 34.6931 12.0517 34.7538C10.7451 35.4001 5.78324 37.9971 4.5419 40.74C3.13374 43.8515 4.76591 46.0845 5.84624 46.3855C9.1934 47.3165 12.6281 45.6411 14.4749 42.8878C16.3206 40.1356 16.0954 36.5505 15.2484 34.9148C15.2379 34.895 15.2262 34.8751 15.2157 34.8541C15.5529 34.6546 15.8971 34.4516 16.2377 34.251C16.9027 33.8601 17.5561 33.4961 18.1219 33.1881C17.8046 34.0561 17.5724 35.098 17.4522 36.6018C17.3099 38.3681 18.0344 40.6513 18.9817 41.5496C19.3994 41.9451 19.9011 41.9545 20.2184 41.9545C21.3209 41.9545 21.8237 41.0375 22.3779 39.9525C23.0569 38.6225 23.6601 37.0731 23.6601 37.0731C23.6601 37.0731 22.9041 41.2568 24.9644 41.2568C25.7157 41.2568 26.4706 40.2826 26.8077 39.7868C26.8089 39.7926 26.8089 39.795 26.8089 39.795C26.8089 39.795 26.8287 39.7623 26.8672 39.6981C26.9454 39.5791 26.9897 39.5033 26.9897 39.5033C26.9897 39.5033 26.9909 39.4951 26.9932 39.4811C27.2954 38.9573 27.9651 37.7626 28.9684 35.7921C30.2657 33.2465 31.5094 30.0568 31.5094 30.0568C31.5094 30.0568 31.6249 30.8361 32.0041 32.1265C32.2269 32.8848 32.7006 33.7236 33.0751 34.5286C32.7741 34.9463 32.5897 35.1855 32.5897 35.1855C32.5897 35.1855 32.5909 35.1901 32.5944 35.1983C32.3541 35.518 32.0846 35.8621 31.8022 36.1981C30.7779 37.4173 29.5587 38.8103 29.3954 39.2116C29.2029 39.6853 29.2484 40.033 29.6206 40.3141C29.8924 40.5183 30.3754 40.551 30.8806 40.5171C31.8011 40.4553 32.4474 40.2266 32.7671 40.0878C33.2652 39.9116 33.8451 39.6351 34.3887 39.235C35.3932 38.4965 35.9987 37.4406 35.9404 36.0406C35.9077 35.2695 35.6627 34.5053 35.3512 33.7843C35.4422 33.6536 35.5332 33.5206 35.6254 33.3876C37.2086 31.073 38.4371 28.5296 38.4371 28.5296C38.4371 28.5296 38.5526 29.309 38.9317 30.5993C39.1231 31.2515 39.5022 31.9643 39.8429 32.662C38.3542 33.8718 37.4314 35.2776 37.1106 36.1993C36.5179 37.905 36.9822 38.6773 37.8526 38.8535C38.2469 38.9328 38.8046 38.752 39.2234 38.5746C39.7449 38.402 40.3714 38.1138 40.9571 37.6833C41.9616 36.9448 42.9276 35.9111 42.8692 34.5123C42.8424 33.8753 42.6697 33.243 42.4352 32.6363C43.6976 32.1101 45.3309 31.8185 47.4122 32.0611C51.8771 32.5826 52.7521 35.3698 52.5852 36.5365C52.4172 37.7031 51.4816 38.3448 51.1677 38.5385C50.8551 38.7321 50.7594 38.7998 50.7851 38.9433C50.8236 39.1521 50.9682 39.1451 51.2354 39.0996C51.6029 39.0378 53.5792 38.1511 53.6644 35.9975C53.7706 33.2605 51.1514 30.2575 46.5116 30.282ZM12.0984 41.8833C10.6191 43.4968 8.55407 44.1058 7.6674 43.5925C6.71074 43.0383 7.0899 40.663 8.90407 38.9503C10.0101 37.9073 11.4381 36.946 12.3854 36.3545C12.6012 36.225 12.9174 36.0348 13.3024 35.8038C13.3666 35.7676 13.4027 35.7478 13.4027 35.7478L13.4016 35.7455C13.4762 35.7011 13.5521 35.6556 13.6302 35.6078C14.2917 38.045 13.6512 40.1905 12.0984 41.8833ZM22.8726 34.5601C22.3581 35.8155 21.2801 39.0285 20.6232 38.8558C20.0597 38.7076 19.7167 36.2658 20.5112 33.8625C20.9102 32.6526 21.7642 31.2071 22.2659 30.646C23.0732 29.743 23.9622 29.4478 24.1781 29.8141C24.4522 30.2808 23.1957 33.7726 22.8726 34.5601ZM31.7731 38.8068C31.5549 38.9211 31.3542 38.9923 31.2621 38.9375C31.1932 38.8966 31.3519 38.7461 31.3519 38.7461C31.3519 38.7461 32.4649 37.548 32.9036 37.0031C33.1591 36.6858 33.4542 36.309 33.7762 35.889C33.7786 35.931 33.7797 35.973 33.7797 36.0138C33.7774 37.4488 32.3914 38.4171 31.7731 38.8068ZM38.6296 37.2435C38.4662 37.128 38.4942 36.7535 39.0297 35.5856C39.2397 35.1271 39.7204 34.356 40.5534 33.6186C40.6502 33.922 40.7086 34.2125 40.7074 34.4831C40.6969 36.2891 39.4089 36.9635 38.6296 37.2435Z" fill="black"/>
    </g>
    <g id='google'>
        <path d="M30.0014 16.3109C30.0014 15.1598 29.9061 14.3198 29.6998 13.4487H16.2871V18.6442H24.1601C24.0014 19.9354 23.1442 21.8798 21.2394 23.1864L21.2127 23.3604L25.4536 26.58L25.7474 26.6087C28.4458 24.1665 30.0014 20.5731 30.0014 16.3109Z" fill="#4285F4"/>
        <path d="M16.2863 30C20.1434 30 23.3814 28.7555 25.7466 26.6089L21.2386 23.1865C20.0323 24.011 18.4132 24.5866 16.2863 24.5866C12.5086 24.5866 9.30225 22.1444 8.15929 18.7688L7.99176 18.7827L3.58208 22.1272L3.52441 22.2843C5.87359 26.8577 10.699 30 16.2863 30Z" fill="#34A853"/>
        <path d="M8.16013 18.7688C7.85855 17.8977 7.68401 16.9643 7.68401 15.9999C7.68401 15.0354 7.85855 14.1021 8.14426 13.231L8.13627 13.0455L3.67132 9.64734L3.52524 9.71544C2.55703 11.6132 2.00146 13.7444 2.00146 15.9999C2.00146 18.2555 2.55703 20.3865 3.52524 22.2843L8.16013 18.7688Z" fill="#FBBC05"/>
        <path d="M16.2864 7.4133C18.9689 7.4133 20.7784 8.54885 21.8102 9.4978L25.8419 5.64C23.3658 3.38445 20.1435 2 16.2864 2C10.699 2 5.8736 5.1422 3.52441 9.71549L8.14345 13.2311C9.30229 9.85555 12.5086 7.4133 16.2864 7.4133Z" fill="#EB4335"/>
    </g>
    <g id='youtube'>
        <path d="M2.24451 9.94111C2.37304 7.96233 3.96395 6.41157 5.94447 6.31345C8.81239 6.17136 12.9115 6 16 6C19.0885 6 23.1876 6.17136 26.0555 6.31345C28.0361 6.41157 29.627 7.96233 29.7555 9.94111C29.8786 11.8369 30 14.1697 30 16C30 17.8303 29.8786 20.1631 29.7555 22.0589C29.627 24.0377 28.0361 25.5884 26.0555 25.6866C23.1876 25.8286 19.0885 26 16 26C12.9115 26 8.81239 25.8286 5.94447 25.6866C3.96395 25.5884 2.37304 24.0377 2.24451 22.0589C2.12136 20.1631 2 17.8303 2 16C2 14.1697 2.12136 11.8369 2.24451 9.94111Z" fill="#FC0D1B"/>
        <path d="M13 12V20L21 16L13 12Z" fill="white"/>
    </g>
    <g id='apple'>
        <path d="M30 16C30 23.728 23.735 30 16 30C8.265 30 2 23.728 2 16C2 8.265 8.265 2 16 2C23.735 2 30 8.265 30 16Z" fill="#283544"/>
        <path d="M22.5621 12.4574C22.4857 12.502 20.6671 13.4425 20.6671 15.5279C20.7528 17.9061 22.9621 18.7401 23 18.7401C22.9621 18.7847 22.6665 19.8763 21.7907 21.0205C21.0956 22.0062 20.3242 23 19.1528 23C18.0385 23 17.6385 22.3431 16.3528 22.3431C14.972 22.3431 14.5813 23 13.5242 23C12.3528 23 11.5242 21.953 10.7913 20.9766C9.8391 19.6986 9.02978 17.6931 9.00121 15.7675C8.98195 14.7471 9.19189 13.744 9.72481 12.8921C10.477 11.7026 11.8198 10.8952 13.2863 10.8686C14.4099 10.8333 15.4099 11.5875 16.0956 11.5875C16.7528 11.5875 17.9814 10.8686 19.3714 10.8686C19.9714 10.8692 21.5714 11.0376 22.5621 12.4574ZM16.0006 10.6649C15.8006 9.73303 16.3528 8.80119 16.8671 8.20677C17.5242 7.48792 18.5621 7 19.4571 7C19.5143 7.93185 19.1522 8.84575 18.505 9.51136C17.9242 10.2302 16.9242 10.7714 16.0006 10.6649Z" fill="white"/>
    </g>
    <g id='aboutMe' fill='none'>
        <!-- width="523" height="593" viewBox="0 0 523 593" -->
        <path d="M508.358 0H14C7.37258 0 2 5.37258 2 12V506.358C2 512.985 7.37258 518.358 14 518.358H508.358C514.985 518.358 520.358 512.985 520.358 506.358V12C520.358 5.37258 514.985 0 508.358 0Z" stroke="black" stroke-width="4" stroke-miterlimit="10"/>
        <path d="M173.41 308.002C175.65 308.147 186.132 308.871 201.458 309.953C207.272 300.421 214.369 283.408 212.777 258.789C212.487 254.712 221.013 278.444 215.702 310.953C245.317 313.017 285.609 315.81 320.817 317.912C322.126 304.183 323.963 291.524 323.963 291.524C324.718 301.497 326.429 310.538 328.474 318.402C333.287 318.73 338.012 318.956 342.536 319.214C342.479 297.81 347.821 260.764 347.821 260.764C349.828 286.793 357.152 307.845 362.556 320.296C384.923 321.397 399.658 321.712 398.758 320.611C366.69 280.262 392.492 259.047 384.432 224.436C374.756 182.962 339.749 174.839 342.203 144.136C344.134 119.152 349.325 73.8894 318.162 62.7405C318.162 62.7405 293.738 33.4025 252.647 47.0617C201.817 63.9108 218.062 141.984 213.934 157.524C208.064 179.728 197.029 187.139 187.887 212.344C178.569 237.85 189.573 255.568 190.108 273.178C190.58 290.788 167.798 307.694 173.41 308.002Z" fill="#8296E6"/>
        <path d="M400.016 315.124C395.82 307.99 392.133 300.503 390.157 292.72C387.949 284.975 389.415 277.211 391.328 269.227C393.228 261.28 395.436 253.164 396.575 244.689C397.613 236.246 397.714 227.318 395.285 218.812C393.008 210.293 388.515 202.447 382.828 195.998C377.209 189.448 370.666 184.088 364.362 178.803C358.12 173.461 351.891 168.176 347.336 161.532C342.668 154.983 340.013 147.049 339.39 138.756C338.679 147.024 340.491 155.7 344.769 163.137C348.985 170.624 355.056 176.764 361.077 182.465C367.098 188.203 373.17 193.683 378.178 199.874C383.148 206.058 387.037 212.967 388.943 220.51C390.875 228.029 391.158 235.975 390.22 243.934C389.396 251.918 387.534 259.902 386.074 268.157C385.382 272.291 384.74 276.506 384.684 280.866C384.602 285.233 385.502 289.706 386.93 293.708C389.975 301.723 394.555 308.852 400.016 315.124Z" fill="#8296E6"/>
        <path d="M223.089 74.4805C218.766 83.7858 216.854 94.0035 214.928 104.026C213.192 114.118 211.952 124.273 210.826 134.39L209.046 149.49C208.442 154.536 207.586 159.261 206.101 163.866C203.194 173.121 197.576 181.055 191.272 189.096C188.208 193.179 185.099 197.439 182.501 202.088C179.896 206.725 177.757 211.67 176.253 216.779C174.894 221.957 173.913 227.047 173.347 232.288C172.755 237.516 172.793 242.896 173.485 248.137C174.158 253.397 175.404 258.392 176.411 263.287C177.436 268.169 178.009 273.152 178.078 278.072C178.38 287.843 172.787 297.325 164.614 303.34C173.592 298.552 180.45 288.995 181.243 278.205C181.626 272.957 181.324 267.742 180.645 262.589C179.991 257.442 178.934 252.497 178.6 247.608C177.82 237.919 179.506 227.928 182.256 218.585C183.784 213.973 185.678 209.519 188.119 205.309C190.529 201.081 193.48 197.124 196.563 193.097C199.595 189.045 202.76 184.88 205.497 180.325C208.228 175.776 210.568 170.875 212.091 165.729C213.588 160.588 214.368 155.228 214.815 150.144C215.337 145.023 215.658 139.926 215.979 134.843C216.658 124.682 217.193 114.54 218.143 104.448C218.986 94.3433 220.201 84.264 223.089 74.4805Z" fill="#8296E6"/>
        <path d="M224.02 241.455C161.053 312.299 84.8047 458.392 101.887 486.314C120.919 517.414 211.764 416.533 208.637 411.966C205.982 408.084 235.515 320.692 256.964 256.788C278.387 192.94 239.592 223.933 224.02 241.455Z" fill="#D3766A"/>
        <path d="M224.02 241.455C161.053 312.299 84.8047 458.392 101.887 486.314C120.919 517.414 211.764 416.533 208.637 411.966C205.982 408.084 235.515 320.692 256.964 256.788C278.387 192.94 239.592 223.933 224.02 241.455Z" fill="black" stroke="white" stroke-width="2" stroke-miterlimit="10"/>
        <path d="M232.495 330.099C226.354 348.741 220.717 366.225 216.439 380.199C206.705 380.633 178.242 379.06 148.665 350.641C157.555 334.874 167.181 319.038 177.103 303.913C184.54 311.746 202.584 327.016 232.495 330.099Z" fill="black" stroke="white" stroke-width="1.25833" stroke-miterlimit="10"/>
        <path d="M254.775 221.634C267.317 212.533 282.212 212.099 295.533 215.993C308.46 219.771 319.757 227.588 325.765 235.272L326.329 236.015C343.438 259.204 356.21 291.739 367.108 337.596C377.951 383.22 386.918 441.943 396.484 517.616H164.426L180.074 411.608L180.125 411.266L179.952 410.966V410.965C179.952 410.964 179.95 410.962 179.949 410.96C179.947 410.955 179.942 410.947 179.937 410.937C179.925 410.917 179.908 410.886 179.885 410.845C179.839 410.763 179.77 410.639 179.681 410.476C179.502 410.15 179.24 409.665 178.911 409.036C178.253 407.776 177.328 405.938 176.262 403.632C174.129 399.017 171.439 392.538 169.206 385.077C164.727 370.109 162.152 351.403 169.347 335.86L169.348 335.859C173.018 327.906 187.551 304.295 204.632 280.142C213.163 268.079 222.312 255.906 231.033 245.512C239.767 235.103 248.025 226.535 254.775 221.634Z" fill="white" stroke="black" stroke-width="2"/>
        <path d="M209.398 270.233C204.195 277.374 199.143 284.616 194.179 291.927C195.531 289.083 196.897 286.245 198.23 283.395C198.325 283.188 198.023 283.018 197.922 283.225C196.072 286.799 194.374 290.423 192.719 294.066C186.081 303.894 179.639 313.853 173.422 323.945C170.786 328.23 168.364 332.59 166.583 337.309C164.859 341.876 163.79 346.683 163.224 351.521C162.657 356.372 162.613 361.248 162.991 366.112C163.375 371.126 163.985 376.09 165.105 380.992C166.376 386.522 168.106 392.027 170.346 397.249C171.447 399.81 172.623 402.358 173.888 404.85C175.046 407.121 177.399 411.758 177.367 411.934C176.895 414.501 176.411 416.3 176.084 418.458C175.75 420.654 175.423 422.856 175.09 425.052C174.429 429.45 168.716 472.246 168.074 476.65C166.797 485.389 165.696 494.135 164.608 502.899C163.979 507.926 163.651 512.997 162.947 518.018C162.915 518.219 163.224 518.301 163.261 518.093C163.985 513.721 165.067 509.411 165.86 505.057C166.653 500.697 167.464 496.33 168.282 491.97C169.937 483.162 176.298 435.874 177.676 427.015C178.059 424.568 178.437 422.114 178.821 419.666C179.198 417.232 179.852 413.96 179.758 411.494C179.758 411.494 171.912 395.368 168.861 384.068C167.584 379.324 166.275 374.385 165.74 369.497C165.218 364.684 165.168 359.839 165.564 355.02C165.96 350.2 166.866 345.412 168.345 340.807C169.868 336.05 172.057 331.627 174.505 327.28C179.626 318.176 185.075 309.241 190.592 300.37C196.853 290.316 203.188 280.3 209.662 270.384C209.776 270.214 209.511 270.082 209.398 270.233Z" fill="black"/>
        <path d="M101.886 486.314C117.961 506.939 158.908 508.895 261.531 523.511C275.731 525.53 316.967 429.148 301.911 426.21C282.948 422.511 208.561 412.255 203.025 412.186C156.347 411.658 90.9828 472.322 101.886 486.314Z" fill="black"/>
        <path d="M281.349 422.63C281.349 422.63 324.724 426.896 346.821 436.189C376.41 448.634 396.827 471.561 404.805 481.69C421.459 502.824 447.11 565.439 430.361 575.971C415.205 585.509 392.215 520.183 392.215 520.183C392.215 520.183 426.643 582.917 406.283 591.046C385.923 599.175 363.55 521.819 363.55 521.819C363.55 521.819 397.481 587.069 375.152 592.128C358.284 595.953 334.074 527.034 334.074 527.034C334.074 527.034 362.845 583.326 345.669 588.001C326.687 593.172 300.35 530.96 300.35 530.96C254.679 535.503 231.073 518.981 215.683 505.234C211.965 501.905 281.349 422.63 281.349 422.63Z" fill="white" stroke="black" stroke-width="2.5" stroke-miterlimit="10"/>
        <path d="M381.708 497.721C386.018 504.944 390.435 512.224 394.084 519.811C397.739 527.393 401.131 535.107 404.063 542.996C411.254 562.343 412.732 575.581 412.55 574.776C408.284 555.674 395.625 528.33 391.97 520.743C388.321 513.18 385.055 505.429 381.413 497.854C381.324 497.659 381.608 497.552 381.708 497.721Z" fill="black"/>
        <path d="M354.088 510.418C359.19 519.881 364.607 529.085 369.295 538.775C373.957 548.42 377.543 557.977 381.532 567.911C381.84 568.679 381.324 568.591 380.985 567.836C376.599 558.065 371.792 549.37 367.3 539.649C362.821 529.966 358.681 520.032 353.849 510.519C353.779 510.374 354.012 510.273 354.088 510.418Z" fill="black"/>
        <path d="M328.431 517.056C336.975 531.117 342.914 546.733 348.369 562.198C348.64 562.966 347.992 562.783 347.671 562.016C341.322 546.884 336.453 534.968 327.94 517.358C327.808 517.074 328.248 516.754 328.431 517.056Z" fill="black"/>
        <path d="M173.882 418.995C185.738 414.71 196.188 412.455 202.8 413.031C216.474 414.223 244.274 417.058 268.664 419.596C280.857 420.865 292.196 422.059 300.486 422.936C304.631 423.374 308.014 423.734 310.361 423.984C311.042 424.056 311.637 424.119 312.137 424.172L229.199 521.765C228.996 521.75 228.732 521.73 228.411 521.705C227.566 521.639 226.322 521.539 224.735 521.4C221.56 521.121 217.008 520.689 211.503 520.076C200.492 518.851 185.677 516.9 170.454 514.003C155.223 511.104 139.622 507.265 127.02 502.271C120.719 499.774 115.199 497.001 110.859 493.934C106.512 490.862 103.413 487.54 101.853 483.97C98.7602 476.893 101.467 468.834 108.189 460.533C114.885 452.265 125.371 444.019 137.189 436.757C148.995 429.502 162.068 423.266 173.882 418.995Z" fill="black" stroke="white" stroke-width="2"/>
        <path d="M158.429 425.203C165.061 420.673 183.904 409.908 202.886 412.035C203.1 412.06 203.106 412.362 202.893 412.368C187.327 412.846 165.382 421.611 158.599 425.474C158.417 425.574 158.266 425.316 158.429 425.203Z" fill="black"/>
        <path d="M211.764 505.617C244.971 470.447 274.536 428.443 280.211 421.491C280.482 421.164 279.915 420.768 279.664 421.114C274.454 428.223 235.458 472.561 211.166 505.202C210.883 505.579 211.449 505.957 211.764 505.617Z" fill="black"/>
        <path d="M344.009 257.625C411.871 343.978 437.471 499.105 399.803 511.198C365.388 522.246 223.838 486.824 181.671 472.504C169.289 468.295 207.536 372.007 220.786 376.493C236.799 381.91 324.341 402.654 326.04 402.692C329.676 402.773 310.222 307.266 301.873 263.992C290.246 203.693 318.527 225.191 344.009 257.625Z" fill="white" stroke="black" stroke-width="1.25833" stroke-miterlimit="10"/>
        <path d="M107.631 340.31C100.464 348.439 106.265 358.046 106.265 358.046C106.265 358.046 97.9037 360.28 93.6443 367.421C88.7682 375.6 99.4515 386.831 99.4515 386.831C99.4515 386.831 91.4548 390.845 87.7175 398.835C83.8356 407.134 92.9962 420 92.9962 420C92.9962 420 87.6043 427.827 89.3282 437.057C92.2727 452.836 115.093 461.789 129.545 467.628C143.99 473.467 190.442 476.499 199.237 477.972L237.516 385.566C237.516 385.566 180.18 340.945 162.217 336.497C147.079 332.747 115.671 331.187 107.631 340.31Z" fill="white" stroke="black" stroke-width="2.5" stroke-miterlimit="10"/>
        <path d="M107.517 356.826C124.561 356.952 140.643 362.117 156.982 366.358C157.347 366.452 157.19 367.018 156.831 366.924C140.63 362.52 123.756 361.387 107.417 357.631C106.957 357.53 107.058 356.826 107.517 356.826Z" fill="black"/>
        <path d="M100.244 385.742C104.101 385.887 107.895 387.303 111.544 388.448C115.476 389.681 119.377 390.983 123.265 392.342C131.048 395.067 138.768 397.967 146.4 401.094C146.739 401.232 146.607 401.786 146.249 401.66C138.491 398.961 130.689 396.375 122.818 394.003C118.88 392.814 114.935 391.663 110.978 390.537C107.297 389.486 103.333 388.687 99.9483 386.837C99.4575 386.56 99.6652 385.723 100.244 385.742Z" fill="black"/>
        <path d="M93.3297 420.107C96.6831 420.101 100.269 421.925 103.371 423.083C106.888 424.398 110.418 425.694 113.954 426.971C121.019 429.519 128.091 432.067 135.238 434.37C135.597 434.483 135.446 435.05 135.087 434.936C127.808 432.634 120.503 430.432 113.243 428.06C109.675 426.896 106.121 425.713 102.572 424.511C99.5521 423.492 95.6639 422.554 93.1913 420.453C93.0466 420.34 93.1598 420.107 93.3297 420.107Z" fill="black"/>
        <path d="M324.775 398.778C325.87 398.124 305.535 305.945 298.715 257.839C291.895 209.739 313.381 214.357 344.292 255.479C377.405 299.527 436.364 418.767 415.941 507.058C409.329 535.647 204.491 495.594 204.491 495.594L232.093 377.865C232.086 377.871 323.076 399.791 324.775 398.778Z" fill="black" stroke="white" stroke-width="2" stroke-miterlimit="10"/>
        <path d="M408.24 390.039C374.831 399.842 338.61 394.865 323.825 392.084C321.685 380.514 316.501 355.441 311.216 328.343C346.317 332.231 370.138 327.223 383.149 322.863C392.655 343.412 401.564 366.338 408.24 390.039Z" fill="black" stroke="white" stroke-width="2" stroke-miterlimit="10"/>
        <path d="M231.299 483.489C243.757 442.499 250.627 397.526 252.383 389.775C252.465 389.41 251.867 389.316 251.798 389.693C250.47 397.388 237.044 447.929 230.651 483.401C230.582 483.81 231.18 483.886 231.299 483.489Z" fill="black"/>
        <path d="M363.279 412.4C359.328 411.72 254.754 382.269 231.884 378.727C231.526 378.67 231.846 377.469 232.224 377.538C302.489 389.932 360.222 408.719 364.645 410.487C369.898 412.57 370.647 413.665 363.279 412.4Z" fill="black"/>
        <path d="M323.762 399.716C323.838 399.515 316.866 364.218 315.633 362.016C314.369 359.733 311.625 354.661 310.505 352.296C308.24 347.527 306.277 342.651 304.195 337.819C304.019 337.422 304.623 337.108 304.799 337.51C307.051 342.185 309.706 346.665 312.38 351.088C313.714 353.258 315.042 355.454 316.376 357.606C316.476 357.751 309.939 323.115 309.027 317.037C308.951 316.591 309.442 316.465 309.581 316.842C311.544 322.964 325.253 392.342 327.128 400.024C327.128 400.031 325.832 400.005 323.762 399.716Z" fill="black"/>
        <path d="M246.67 502.912C239.844 501.024 212.475 496.601 205.818 495.645C206.473 493.235 208.417 483.439 208.234 480.677C208.215 480.419 207.825 480.262 207.668 480.494C206.114 482.772 203.446 494.821 202.654 497.664C202.503 498.205 239.523 502.855 246.613 503.232C246.815 503.239 246.871 502.968 246.67 502.912Z" fill="black"/>
        <path d="M237.51 229.394C237.51 229.394 240.259 256.48 262.714 260.701C285.169 264.917 327.134 235.421 327.134 235.421C327.134 235.421 310.279 212.74 279.834 212.671C250.546 212.595 237.51 229.394 237.51 229.394Z" fill="black" stroke="white" stroke-width="2" stroke-miterlimit="10"/>
        <path d="M301.986 221.825C300.784 225.896 279.569 251.541 260.769 249.578C254.648 248.929 256.699 215.357 256.699 215.357L256.284 212.847L250.501 177.67L292.8 153.818L298.897 150.691C298.897 150.691 299.847 160.418 300.904 172.549C300.954 173.109 301.011 173.675 301.055 174.279C301.13 174.965 301.212 175.606 301.256 176.248C301.439 178.06 301.615 179.904 301.753 181.753C301.867 183.156 301.98 184.522 302.043 186C302.143 187.485 302.213 188.92 302.313 190.404C302.993 205.014 302.471 220.088 301.986 221.825Z" fill="white"/>
        <path d="M300.904 173.543C289.372 200.622 266.646 210.626 256.29 213.847L250.508 178.671L292.807 154.819L298.904 151.692C298.897 151.686 299.841 161.413 300.904 173.543Z" fill="white" stroke="#8296E6" stroke-width="2.5" stroke-miterlimit="10"/>
        <path d="M209.845 111.998C193.386 172.367 227.682 189.039 240.699 192.575C252.521 195.784 293.178 205.209 315.784 146.866C338.396 88.5238 315.533 61.7905 288.887 53.02C262.248 44.2494 226.31 51.6295 209.845 111.998Z" fill="white" stroke="black" stroke-width="2.5" stroke-miterlimit="10"/>
        <path d="M231.589 100.188C233.055 100.365 234.439 100.283 235.911 100.308C237.566 100.339 238.887 100.528 240.34 99.5907C241.121 99.0874 241.391 97.7535 240.976 96.9482C240.001 95.0796 237.981 94.5385 235.987 94.419C233.822 94.2931 232.123 94.7524 230.368 96.017C228.657 97.2502 229.651 99.9556 231.589 100.188Z" fill="black"/>
        <path d="M274.611 106.216C273.214 105.732 272.006 105.046 270.679 104.423C269.175 103.718 267.911 103.316 267.017 101.831C266.539 101.038 266.885 99.7168 267.609 99.182C269.301 97.9299 271.358 98.3326 273.202 99.1065C275.203 99.9433 276.53 101.101 277.549 103.014C278.531 104.863 276.448 106.852 274.611 106.216Z" fill="black"/>
        <path d="M260.814 125.512C260.883 125.361 261.09 125.789 261.04 125.959C259.889 130.061 259.253 134.956 262.657 137.253C262.764 137.322 262.701 137.53 262.563 137.473C258.158 135.705 259.064 129.212 260.814 125.512Z" fill="black"/>
        <path d="M265.576 122.109C272.352 123.247 269.571 136.718 263.299 135.661C257.114 134.623 259.895 121.152 265.576 122.109Z" fill="black"/>
        <path d="M268.074 123.367C269.094 124.374 269.968 125.953 271.359 126.387C272.969 126.89 274.498 125.733 275.851 124.6C275.989 124.481 276.084 124.625 276.046 124.802C275.549 127.387 274.014 129.835 271.17 129.646C268.571 129.476 267.231 126.815 267.124 124.091C267.099 123.581 267.665 122.958 268.074 123.367Z" fill="black"/>
        <path d="M235.962 117.283C235.962 117.119 235.59 117.409 235.559 117.585C234.791 121.775 233.206 126.45 229.141 127.016C229.016 127.035 228.984 127.243 229.129 127.255C233.86 127.601 235.905 121.379 235.962 117.283Z" fill="black"/>
        <path d="M233.181 112.13C226.593 110.173 223.164 123.493 229.274 125.305C235.276 127.092 238.705 113.772 233.181 112.13Z" fill="black"/>
        <path d="M230.18 112.294C228.946 112.728 227.575 113.741 226.298 113.502C224.813 113.225 224.108 111.507 223.536 109.884C223.479 109.714 223.34 109.802 223.29 109.978C222.567 112.508 222.724 115.377 225.045 116.49C227.159 117.509 229.362 115.748 230.62 113.37C230.846 112.929 230.677 112.118 230.18 112.294Z" fill="black"/>
        <path d="M250.149 157.071C248.985 157.895 247.765 159.091 246.217 158.978C244.732 158.864 243.122 157.933 241.863 157.197C241.737 157.122 241.58 157.247 241.649 157.386C242.486 159.173 244.619 160.55 246.626 160.519C248.583 160.488 249.791 158.996 250.527 157.329C250.627 157.096 250.319 156.952 250.149 157.071Z" fill="black"/>
        <path d="M236.037 138.222C236.037 138.222 233.822 144.249 233.174 147.181C233.118 147.458 233.797 147.741 234.779 148.018C234.823 148.043 234.848 148.068 234.892 148.049C239.894 149.987 245.5 149.339 249.571 145.803C249.835 145.558 249.526 145.174 249.224 145.3C244.738 147.294 240.309 147.093 235.697 146.162C235.666 145.306 239.844 135.963 239.384 135.831C237.811 135.34 234.414 135.743 232.394 135.881C236.647 123.191 242.908 111.287 246.953 98.5841C247.092 98.1311 246.456 97.8417 246.23 98.2255C238.793 110.243 233.571 124.739 228.839 137.731C228.235 139.348 234.754 138.467 236.037 138.222Z" fill="black"/>
        <path d="M235.943 147.093C235.943 147.093 237.711 151.56 241.133 153.913C242.392 154.788 243.845 155.385 245.525 155.385C248.986 155.398 249.854 152.453 249.942 149.761C250.017 147.546 249.533 145.489 249.533 145.489C249.533 145.489 243.638 148.647 235.943 147.093Z" fill="black"/>
        <path d="M244.852 150.849C246.236 150.248 247.861 150.024 249.419 150.196C249.34 151.354 249.098 152.475 248.573 153.326C248.004 154.248 247.083 154.891 245.527 154.885H245.525C244.114 154.885 242.867 154.43 241.753 153.723C242.346 152.422 243.465 151.452 244.852 150.849Z" fill="white" stroke="black"/>
        <path d="M312.418 145.853C305.982 143.588 294.097 120.68 302.641 88.9074C302.641 88.9074 296.941 117.969 297.878 122.744C298.822 127.513 291.253 109.871 297.784 84.1509C297.784 84.1509 280.733 90.2979 267.722 90.2161C254.711 90.1406 247.375 87.9134 246.765 86.7934C246.154 85.6735 265.476 85.1765 271.856 81.024C271.856 81.024 235.553 86.7305 220.459 83.6224C218.71 83.2638 226.751 47.5523 253.849 39.1907C280.953 30.8291 312.5 57.2981 319.528 69.4788C319.528 69.4788 330.482 74.38 338.05 94.8216C345.632 115.263 319.352 148.294 312.418 145.853Z" fill="#8296E6"/>
        <path d="M303.075 147.181C303.075 147.181 319.999 130.407 327.851 136.781C335.697 143.154 320.541 169.177 309.606 171.127C298.677 173.077 296.67 162.998 296.67 162.998L303.075 147.181Z" fill="white" stroke="black" stroke-width="2.5" stroke-miterlimit="10"/>
        <path d="M323.322 144.13C323.491 144.142 323.479 144.381 323.328 144.413C315.621 146.017 310.638 151.988 306.737 158.405C309.354 156.14 312.525 155.209 315.621 158.399C315.784 158.569 315.551 158.827 315.356 158.745C312.531 157.581 310.317 157.707 307.901 159.702C306.189 161.111 304.849 163.049 303.49 164.792C303.037 165.37 301.942 164.817 302.32 164.125C302.345 164.074 302.383 164.024 302.408 163.967C303.887 154.781 313.324 143.268 323.322 144.13Z" fill="black"/>
    </g>
    <g id='readMore'>
        <path d="M10.8333 9.16658L17.6666 2.33325" stroke="white" stroke-width="2" stroke-linecap="round" stroke-linejoin="round"/>
        <path d="M18.3333 5.66675V1.66675H14.3333" stroke="white" stroke-width="2" stroke-linecap="round" stroke-linejoin="round"/>
        <path d="M9.16675 1.66675H7.50008C3.33341 1.66675 1.66675 3.33341 1.66675 7.50008V12.5001C1.66675 16.6667 3.33341 18.3334 7.50008 18.3334H12.5001C16.6667 18.3334 18.3334 16.6667 18.3334 12.5001V10.8334" stroke="white" stroke-width="2" stroke-linecap="round" stroke-linejoin="round"/>
    </g>
</svg>