<svg xmlns="http://www.w3.org/2000/svg">
    <g id='logo'>
        <path d="M31.5294 14.2118C31.5294 18.8819 28.7623 22.9082 24.7793 24.7351C26.4612 23.3496 27.5322 21.248 27.5322 18.896C27.5322 14.7642 24.2259 11.4042 20.112 11.3205C20.0574 11.3167 20.0075 11.3167 19.9529 11.3167C19.8983 11.3167 19.8485 11.3167 19.7939 11.3205C18.2673 11.4033 17.0588 12.6663 17.0588 14.2108V28.6814C17.0588 33.4748 13.1699 37.3638 8.37646 37.3638V14.2118C8.37646 7.81928 13.5605 2.63528 19.9529 2.63528C26.3454 2.63528 31.5294 7.81928 31.5294 14.2118Z" fill="black"/>
        <path d="M21.9992 16.2582C23.1294 15.128 23.1294 13.2956 21.9992 12.1654C20.8689 11.0351 19.0365 11.0351 17.9063 12.1654C16.7761 13.2956 16.7761 15.128 17.9063 16.2582C19.0365 17.3884 20.8689 17.3884 21.9992 16.2582Z" fill="black"/>
        <path d="M56.4258 22.82V19.98H59.0458C59.5524 19.98 59.9858 19.88 60.3458 19.68C60.7191 19.48 61.0058 19.2 61.2058 18.84C61.4058 18.4667 61.5058 18.04 61.5058 17.56C61.5058 17.0533 61.4058 16.62 61.2058 16.26C61.0058 15.8867 60.7191 15.6067 60.3458 15.42C59.9858 15.22 59.5524 15.12 59.0458 15.12H56.4258V12.28H58.8858C60.1258 12.28 61.1858 12.4867 62.0658 12.9C62.9591 13.3133 63.6391 13.9 64.1058 14.66C64.5858 15.42 64.8258 16.3333 64.8258 17.4V17.72C64.8258 18.76 64.5858 19.6667 64.1058 20.44C63.6391 21.2 62.9591 21.7867 62.0658 22.2C61.1858 22.6133 60.1258 22.82 58.8858 22.82H56.4258ZM53.5458 27V12.28H56.8258V27H53.5458ZM71.1889 27.38C70.2556 27.38 69.4289 27.22 68.7089 26.9C68.0022 26.58 67.4089 26.1533 66.9289 25.62C66.4622 25.0733 66.1022 24.4667 65.8489 23.8C65.6089 23.12 65.4889 22.4267 65.4889 21.72V21.32C65.4889 20.5867 65.6089 19.8867 65.8489 19.22C66.1022 18.54 66.4622 17.9333 66.9289 17.4C67.3956 16.8667 67.9756 16.4467 68.6689 16.14C69.3756 15.82 70.1756 15.66 71.0689 15.66C72.2422 15.66 73.2289 15.9267 74.0289 16.46C74.8422 16.98 75.4622 17.6667 75.8889 18.52C76.3156 19.36 76.5289 20.28 76.5289 21.28V22.36H66.8289V20.54H74.5889L73.5489 21.38C73.5489 20.7267 73.4556 20.1667 73.2689 19.7C73.0822 19.2333 72.8022 18.88 72.4289 18.64C72.0689 18.3867 71.6156 18.26 71.0689 18.26C70.5089 18.26 70.0356 18.3867 69.6489 18.64C69.2622 18.8933 68.9689 19.2667 68.7689 19.76C68.5689 20.24 68.4689 20.8333 68.4689 21.54C68.4689 22.1933 68.5622 22.7667 68.7489 23.26C68.9356 23.74 69.2289 24.1133 69.6289 24.38C70.0289 24.6467 70.5489 24.78 71.1889 24.78C71.7756 24.78 72.2556 24.6667 72.6289 24.44C73.0022 24.2133 73.2556 23.9333 73.3889 23.6H76.3289C76.1689 24.3333 75.8556 24.9867 75.3889 25.56C74.9222 26.1333 74.3356 26.58 73.6289 26.9C72.9222 27.22 72.1089 27.38 71.1889 27.38ZM78.2494 27V16.04H80.7894V20.74H80.7294C80.7294 19.1933 81.056 18 81.7094 17.16C82.376 16.32 83.336 15.9 84.5894 15.9H85.0094V18.66H84.2094C83.3294 18.66 82.6494 18.9 82.1694 19.38C81.6894 19.8467 81.4494 20.5267 81.4494 21.42V27H78.2494ZM90.4273 27.34C88.8673 27.34 87.6473 27.02 86.7673 26.38C85.8873 25.74 85.4207 24.84 85.3673 23.68H88.2073C88.2607 24.0267 88.4673 24.34 88.8273 24.62C89.2007 24.8867 89.754 25.02 90.4873 25.02C91.0473 25.02 91.5073 24.9267 91.8673 24.74C92.2407 24.54 92.4273 24.26 92.4273 23.9C92.4273 23.58 92.2873 23.3267 92.0073 23.14C91.7273 22.94 91.2273 22.8 90.5073 22.72L89.6473 22.64C88.3273 22.5067 87.334 22.14 86.6673 21.54C86.014 20.94 85.6873 20.1733 85.6873 19.24C85.6873 18.4667 85.8807 17.82 86.2673 17.3C86.654 16.78 87.1873 16.3867 87.8673 16.12C88.5607 15.8533 89.3473 15.72 90.2273 15.72C91.6407 15.72 92.7807 16.0333 93.6473 16.66C94.514 17.2733 94.9673 18.1667 95.0073 19.34H92.1673C92.114 18.98 91.9273 18.68 91.6073 18.44C91.2873 18.1867 90.814 18.06 90.1873 18.06C89.694 18.06 89.3007 18.1533 89.0073 18.34C88.714 18.5267 88.5673 18.78 88.5673 19.1C88.5673 19.4067 88.694 19.64 88.9473 19.8C89.2007 19.96 89.614 20.0733 90.1873 20.14L91.0473 20.22C92.394 20.3667 93.4407 20.74 94.1873 21.34C94.934 21.94 95.3073 22.7467 95.3073 23.76C95.3073 24.4933 95.1073 25.1333 94.7073 25.68C94.3073 26.2133 93.7407 26.6267 93.0073 26.92C92.274 27.2 91.414 27.34 90.4273 27.34ZM102.321 27.38C101.361 27.38 100.507 27.2333 99.7606 26.94C99.0139 26.6333 98.3806 26.22 97.8606 25.7C97.3539 25.18 96.9673 24.5867 96.7006 23.92C96.4339 23.24 96.3006 22.5267 96.3006 21.78V21.32C96.3006 20.56 96.4339 19.84 96.7006 19.16C96.9806 18.4667 97.3806 17.86 97.9006 17.34C98.4339 16.82 99.0739 16.4133 99.8206 16.12C100.567 15.8133 101.401 15.66 102.321 15.66C103.267 15.66 104.107 15.8133 104.841 16.12C105.587 16.4133 106.221 16.82 106.741 17.34C107.261 17.86 107.661 18.4667 107.941 19.16C108.221 19.84 108.361 20.56 108.361 21.32V21.78C108.361 22.5267 108.227 23.24 107.961 23.92C107.694 24.5867 107.301 25.18 106.781 25.7C106.274 26.22 105.647 26.6333 104.901 26.94C104.154 27.2333 103.294 27.38 102.321 27.38ZM102.321 24.68C102.947 24.68 103.467 24.5467 103.881 24.28C104.294 24.0133 104.607 23.64 104.821 23.16C105.047 22.68 105.161 22.1467 105.161 21.56C105.161 20.9333 105.047 20.3867 104.821 19.92C104.594 19.44 104.267 19.06 103.841 18.78C103.427 18.5 102.921 18.36 102.321 18.36C101.734 18.36 101.227 18.5 100.801 18.78C100.374 19.06 100.047 19.44 99.8206 19.92C99.6073 20.3867 99.5006 20.9333 99.5006 21.56C99.5006 22.1467 99.6073 22.68 99.8206 23.16C100.034 23.64 100.354 24.0133 100.781 24.28C101.207 24.5467 101.721 24.68 102.321 24.68ZM110.194 27V16.04H112.734V20.74H112.554C112.554 19.62 112.694 18.6867 112.974 17.94C113.267 17.1933 113.707 16.6333 114.294 16.26C114.881 15.8867 115.594 15.7 116.434 15.7H116.574C117.854 15.7 118.827 16.12 119.494 16.96C120.174 17.7867 120.514 19.0467 120.514 20.74V27H117.314V20.56C117.314 19.9733 117.141 19.4933 116.794 19.12C116.447 18.7467 115.981 18.56 115.394 18.56C114.794 18.56 114.307 18.7533 113.934 19.14C113.574 19.5133 113.394 20.0067 113.394 20.62V27H110.194ZM129.461 27V23.76H128.921V20.24C128.921 19.68 128.787 19.26 128.521 18.98C128.254 18.7 127.827 18.56 127.241 18.56C126.947 18.56 126.561 18.5667 126.081 18.58C125.601 18.5933 125.107 18.6133 124.601 18.64C124.094 18.6667 123.634 18.6933 123.221 18.72V16.02C123.527 15.9933 123.887 15.9667 124.301 15.94C124.714 15.9133 125.141 15.8933 125.581 15.88C126.021 15.8667 126.434 15.86 126.821 15.86C127.941 15.86 128.881 16.02 129.641 16.34C130.414 16.66 131.001 17.1467 131.401 17.8C131.801 18.44 132.001 19.2667 132.001 20.28V27H129.461ZM125.961 27.28C125.174 27.28 124.481 27.14 123.881 26.86C123.294 26.58 122.834 26.18 122.501 25.66C122.167 25.1267 122.001 24.4933 122.001 23.76C122.001 22.96 122.207 22.3067 122.621 21.8C123.034 21.28 123.614 20.9 124.361 20.66C125.107 20.4067 125.967 20.28 126.941 20.28H129.281V22.06H126.921C126.361 22.06 125.927 22.2 125.621 22.48C125.327 22.7467 125.181 23.1133 125.181 23.58C125.181 24.02 125.327 24.38 125.621 24.66C125.927 24.9267 126.361 25.06 126.921 25.06C127.281 25.06 127.601 25 127.881 24.88C128.174 24.7467 128.414 24.5267 128.601 24.22C128.787 23.9133 128.894 23.4867 128.921 22.94L129.681 23.74C129.614 24.5 129.427 25.14 129.121 25.66C128.827 26.18 128.414 26.58 127.881 26.86C127.361 27.14 126.721 27.28 125.961 27.28ZM134.456 27V12.4H137.676V27H134.456ZM133.156 14.76V12.4H137.676V14.76H133.156Z" fill="black"/>
    </g>
    <g id='banner'>
        <!-- width="630" height="630" viewBox="0 0 630 630" fill="none" xmlns="http://www.w3.org/2000/svg" -->
        <path d="M319.826 83.1222C358.155 59.346 445.549 181.982 376.425 252.869C361.053 268.632 356.492 258.993 336.382 262.307C325.055 264.172 320.443 240.269 269.501 255.238C236.011 265.079 240.912 219.127 193.41 229.849C89.6995 253.247 229.345 76.608 319.838 83.1222H319.826Z" fill="#8296E6"/>
        <path fill-rule="evenodd" clip-rule="evenodd" d="M328.23 82.8198C322.799 92.232 308.486 94.311 295.432 90.2538C281.446 85.9068 274.189 70.6986 279.922 57.2292C283.399 49.0518 289.825 42.0084 299.426 38.2536C309.028 34.4988 319.725 38.5182 324.563 47.5272C330.7 58.9554 332.892 74.7684 328.243 82.8324L328.23 82.8198Z" fill="#8296E6"/>
        <path d="M342.896 183.758C344.03 178.076 346.424 173.59 349.461 170.654C353.896 166.37 359.767 165.236 365.173 168.197C368.348 169.936 371.284 173.162 373.64 178.051C371.574 180.268 369.268 181.138 366.786 181.251C361.342 171.184 352.989 174.208 350.481 184.338C347.76 185.044 345.24 184.64 342.896 183.746V183.758Z" fill="#FFF8F5"/>
        <path d="M344.307 178.807C345.592 175.43 347.369 172.683 349.46 170.654C353.895 166.37 359.767 165.236 365.172 168.197C367.062 169.231 368.864 170.793 370.502 172.91C368.007 174.17 365.324 175.279 362.489 176.198C359.2 174.056 355.697 175.052 353.19 178.34C350.128 178.769 347.129 178.92 344.294 178.794L344.307 178.807Z" fill="white" stroke="black" stroke-width="2.52" stroke-miterlimit="10"/>
        <path fill-rule="evenodd" clip-rule="evenodd" d="M328.809 173.426C324.487 167.744 303.924 161.482 300.358 164.279C299.388 183.834 295.507 209.614 291.45 219.618C302.425 223.121 324.198 221.861 333.711 219.379C328.645 209.903 327.826 180.671 328.809 173.414V173.426Z" fill="white" stroke="#020202" stroke-width="2.52" stroke-miterlimit="10"/>
        <path fill-rule="evenodd" clip-rule="evenodd" d="M349.788 136.546C355.206 135.047 360.902 138.575 362.514 144.409C364.127 150.255 361.053 156.202 355.635 157.689C350.217 159.188 344.522 155.66 342.909 149.827C341.296 143.993 344.37 138.033 349.788 136.546Z" fill="white" stroke="#020202" stroke-width="2.52" stroke-miterlimit="10"/>
        <path fill-rule="evenodd" clip-rule="evenodd" d="M300.346 164.279C279.291 175.342 271.945 133.988 298.582 144.963C305.26 134.618 317.469 132.665 318.603 113.929C323.177 113.614 327.65 113.69 332.01 114.269C342.052 115.592 350.506 122.333 354.236 131.758C364.089 156.656 352.787 182.158 336.747 187.551C325.533 191.331 313.147 181.755 300.333 164.291L300.346 164.279Z" fill="white" stroke="#020202" stroke-width="2.52" stroke-miterlimit="10"/>
        <path d="M287.406 152.8C286.738 153.191 285.894 152.977 285.491 152.309C285.1 151.641 285.314 150.797 285.982 150.394C286.234 150.242 286.499 150.104 286.763 149.978C288.628 149.071 290.669 148.768 292.622 149.31C294.563 149.839 296.365 151.187 297.763 153.544C297.94 153.833 298.103 154.148 298.267 154.476C298.494 154.892 298.519 155.408 298.267 155.849C297.889 156.517 297.032 156.744 296.365 156.366C295.533 155.887 294.752 155.572 294.021 155.383C293.29 155.194 292.597 155.156 291.98 155.219C291.211 155.308 290.531 154.753 290.443 153.985C290.354 153.216 290.909 152.536 291.677 152.447C292.093 152.397 292.509 152.384 292.95 152.41C292.61 152.221 292.257 152.069 291.892 151.969C290.632 151.616 289.271 151.843 287.986 152.46C287.797 152.548 287.608 152.649 287.406 152.775V152.8Z" fill="black"/>
        <path d="M299.174 165.022C298.758 164.367 298.96 163.51 299.615 163.107C300.27 162.691 301.127 162.893 301.53 163.548C303.698 166.988 306.318 170.528 309.481 173.905C312.644 177.269 316.335 180.47 320.67 183.217C321.312 183.632 321.514 184.489 321.098 185.132C320.682 185.774 319.826 185.976 319.183 185.56C314.634 182.662 310.766 179.323 307.465 175.808C304.164 172.292 301.442 168.613 299.187 165.035L299.174 165.022Z" fill="black"/>
        <path d="M266.49 183.317C270.308 177.962 274.882 174.422 279.38 172.809C285.97 170.428 292.572 171.99 296.793 177.584C299.275 180.86 300.813 185.573 300.976 191.734C297.801 193.057 295.004 192.893 292.383 191.86C291.438 178.907 281.371 178.151 274.063 187.475C270.913 186.934 268.494 185.359 266.478 183.33L266.49 183.317Z" fill="#FFF8F5"/>
        <path d="M270.258 178.844C273.156 175.946 276.293 173.918 279.393 172.809C285.982 170.428 292.585 171.99 296.806 177.584C298.28 179.537 299.414 181.982 300.132 184.943C296.97 185.094 293.668 184.993 290.304 184.615C287.898 180.86 283.803 180.256 279.682 182.511C276.306 181.528 273.143 180.293 270.258 178.844Z" fill="white" stroke="black" stroke-width="2.52" stroke-miterlimit="10"/>
        <path fill-rule="evenodd" clip-rule="evenodd" d="M321.313 508.271L292.862 507.641L290.871 587.349C315.97 597.227 465.142 600.692 478.75 573.275C372.305 547.558 383.38 461.639 321.313 508.271Z" fill="white" stroke="black" stroke-width="2.52" stroke-miterlimit="10"/>
        <path fill-rule="evenodd" clip-rule="evenodd" d="M438.581 590.008C459.22 586.656 474.781 581.288 478.75 573.275C462.004 569.23 448.157 563.686 436.489 557.411C435.229 561.645 434.549 566.181 434.549 570.893C434.549 577.76 435.998 584.249 438.581 590.008Z" fill="black" stroke="#231F20" stroke-width="2.52" stroke-miterlimit="10"/>
        <path fill-rule="evenodd" clip-rule="evenodd" d="M344.673 586.013L342.682 506.306C351.061 501.593 454.117 466.326 456.889 459.724C448.989 443.482 446.872 422.024 394.09 408.429C657.758 314.156 645.208 569.243 344.673 586.001V586.013Z" fill="#8296E6"/>
        <path fill-rule="evenodd" clip-rule="evenodd" d="M342.922 515.932L342.683 506.318C351.062 501.606 454.117 466.339 456.889 459.736C448.989 443.495 446.872 422.037 394.091 408.442C487.86 374.913 546.664 385.598 570.037 413.998C538.739 467.347 450.803 507.73 342.922 515.92V515.932Z" fill="#8296E6"/>
        <path fill-rule="evenodd" clip-rule="evenodd" d="M296.629 581.83C313.287 561.884 412.89 511.119 406.716 480.186C397.568 434.284 271.593 410.508 236.263 421.583C38.3672 350.847 -26.8756 521.048 156.782 571.927C193.839 582.196 238.052 583.846 296.617 581.83H296.629Z" fill="#8296E6"/>
        <path fill-rule="evenodd" clip-rule="evenodd" d="M390.916 509.972C401.777 499.225 408.467 488.918 406.729 480.186C397.581 434.284 271.606 410.508 236.276 421.583C144.56 388.798 81.3587 407.786 58.2 442.638C106.168 487.28 197.531 517.457 302.375 517.457C333.321 517.457 363.082 514.823 390.916 509.972Z" fill="#8296E6"/>
        <path fill-rule="evenodd" clip-rule="evenodd" d="M314.232 506.936L342.683 506.306L344.674 586.013C319.574 595.892 170.403 599.357 156.795 571.939C263.24 546.223 252.164 460.303 314.232 506.936Z" fill="white" stroke="black" stroke-width="2.52" stroke-miterlimit="10"/>
        <path fill-rule="evenodd" clip-rule="evenodd" d="M196.964 588.672C176.325 585.32 160.764 579.953 156.795 571.939C173.54 567.895 187.388 562.351 199.055 556.076C200.315 560.309 200.996 564.845 200.996 569.558C200.996 576.425 199.547 582.914 196.964 588.672Z" fill="black" stroke="#231F20" stroke-width="2.52" stroke-miterlimit="10"/>
        <path fill-rule="evenodd" clip-rule="evenodd" d="M245.562 519.158C267.751 496.15 279.62 480.929 314.232 506.936C306.206 518.755 290.922 526.743 273.383 526.743C262.963 526.743 253.349 523.921 245.562 519.158Z" fill="black" stroke="#231F20" stroke-width="2.52" stroke-miterlimit="10"/>
        <path d="M345.732 505.084C345.014 505.373 344.208 505.033 343.918 504.315C343.628 503.597 343.968 502.79 344.686 502.501L472.765 450.261C473.484 449.971 474.29 450.311 474.58 451.03C474.87 451.748 474.529 452.554 473.811 452.844L345.732 505.084Z" fill="white"/>
        <path d="M156.681 459.131C155.963 458.854 155.61 458.048 155.887 457.33C156.165 456.611 156.971 456.259 157.689 456.536L263.391 497.536C264.109 497.813 264.462 498.62 264.184 499.338C263.907 500.056 263.101 500.409 262.383 500.132L156.681 459.131Z" fill="white"/>
        <path fill-rule="evenodd" clip-rule="evenodd" d="M359.1 243.155C365.892 233.541 362.175 218.547 359.541 212.638C327.663 211.113 297.637 209.702 272.198 206.212C267.095 212.965 264.021 234.335 269.791 245.965C210.206 255.793 25.9436 418.03 204.045 458.552C519.12 555.534 600.226 345.278 359.088 243.142L359.1 243.155Z" fill="white" stroke="black" stroke-width="2.52" stroke-miterlimit="10"/>
        <path d="M276.128 247.955C275.435 247.628 275.133 246.796 275.461 246.103C275.788 245.41 276.62 245.108 277.313 245.435C282.076 247.666 292.471 249.593 303.156 250.715C314.029 251.849 325.13 252.139 330.838 251.03C331.594 250.891 332.324 251.383 332.463 252.139C332.602 252.895 332.11 253.625 331.354 253.764C325.382 254.923 313.966 254.646 302.853 253.487C291.904 252.34 281.168 250.324 276.116 247.955H276.128Z" fill="black"/>
        <path d="M235.355 297.574C235.469 296.818 236.187 296.289 236.943 296.402C237.699 296.516 238.228 297.234 238.115 297.99L222.34 409.487C222.226 410.243 221.508 410.773 220.752 410.659C220.147 410.571 219.694 410.092 219.593 409.525C219.278 408.379 217.804 405.052 217.363 403.931C213.129 393.158 203.767 385.157 192.78 380.57C181.73 375.971 169.079 374.825 158.306 377.786C156.946 378.164 155.597 378.605 154.262 379.134C153.544 379.411 152.737 379.058 152.46 378.34C152.183 377.622 152.536 376.816 153.254 376.538C154.64 375.997 156.089 375.518 157.588 375.102C168.953 371.977 182.272 373.174 193.864 378C205.002 382.637 214.578 390.65 219.353 401.436L235.381 297.574H235.355Z" fill="black"/>
        <path d="M384.64 306.823C384.488 306.067 384.967 305.336 385.723 305.172C386.479 305.021 387.21 305.5 387.374 306.256L405.102 391.696C405.253 392.452 404.774 393.183 404.018 393.347C403.262 393.511 402.532 393.019 402.368 392.263L384.64 306.823Z" fill="black"/>
        <path fill-rule="evenodd" clip-rule="evenodd" d="M204.057 458.564L221.395 410.684L268.368 421.659L324.564 456.095C321.464 461.462 319.284 465.998 311.371 466.402C315.454 470.32 322.686 471.933 325.433 474.592C321.628 483.714 305.664 481.118 303.408 479.972C289.082 495.243 263.769 477.25 254.13 473.936C248.296 474.516 214.931 471.089 204.07 458.577L204.057 458.564Z" fill="white" stroke="black" stroke-width="2.52" stroke-miterlimit="10"/>
        <path d="M263.491 456.107C262.849 455.692 262.647 454.835 263.063 454.192C263.479 453.55 264.336 453.348 264.978 453.764L304.139 478.8C304.782 479.216 304.983 480.073 304.567 480.715C304.152 481.358 303.295 481.559 302.652 481.144L263.491 456.107Z" fill="black"/>
        <path d="M269.388 441.013C268.771 440.546 268.645 439.677 269.098 439.06C269.564 438.442 270.434 438.316 271.051 438.77C275.612 442.184 286.763 449.417 297.889 456.41C310.716 464.474 323.467 472.185 325.987 473.319C326.693 473.634 327.008 474.453 326.693 475.159C326.378 475.864 325.559 476.179 324.853 475.864C322.207 474.68 309.317 466.88 296.402 458.779C285.201 451.735 273.974 444.452 269.388 441.025V441.013Z" fill="black"/>
        <path d="M276.721 428.413C276.066 428.009 275.852 427.153 276.255 426.497C276.658 425.842 277.515 425.628 278.17 426.031L325.294 454.898C325.95 455.301 326.164 456.158 325.761 456.813C325.357 457.468 324.501 457.682 323.845 457.279L276.721 428.413Z" fill="black"/>
        <path fill-rule="evenodd" clip-rule="evenodd" d="M402.696 245.36C408.026 248.333 410.395 254.23 407.988 258.527C405.594 262.823 399.319 263.894 394.002 260.921C388.672 257.947 386.304 252.05 388.71 247.754C391.117 243.457 397.379 242.386 402.696 245.36Z" fill="white" stroke="black" stroke-width="2.52" stroke-miterlimit="10"/>
        <path fill-rule="evenodd" clip-rule="evenodd" d="M430.933 254.974C422.579 250.916 399.899 249.026 387.312 251.206C380.319 252.416 383.821 266.087 387.841 267.259C384.842 271.82 384.716 279.644 388.786 285.503C386.505 289.787 387.576 298.507 391.671 302.274C395.943 317.092 403.314 317.671 411.554 318.276L411.126 454.066C491.211 452.239 473.609 359.415 447.489 295.47L430.945 254.961L430.933 254.974Z" fill="white" stroke="black" stroke-width="2.52" stroke-miterlimit="10"/>
        <path d="M387.967 268.645C387.198 268.708 386.53 268.141 386.467 267.372C386.404 266.603 386.971 265.936 387.74 265.873C392.062 265.507 397.518 265.721 402.797 266.2C409.601 266.83 416.14 267.901 419.656 268.796C420.399 268.985 420.853 269.741 420.676 270.484C420.5 271.228 419.731 271.681 418.988 271.492C415.548 270.623 409.185 269.564 402.545 268.96C397.429 268.493 392.15 268.292 387.967 268.645Z" fill="black"/>
        <path d="M388.899 286.852C388.131 286.915 387.463 286.348 387.4 285.579C387.337 284.81 387.904 284.143 388.673 284.08C392.919 283.714 397.959 283.928 402.835 284.42C409.337 285.062 415.523 286.209 419.102 287.116C419.845 287.305 420.299 288.061 420.122 288.805C419.933 289.548 419.177 290.002 418.434 289.825C414.944 288.943 408.896 287.834 402.57 287.204C397.871 286.738 392.994 286.524 388.912 286.877L388.899 286.852Z" fill="black"/>
        <path d="M391.659 303.66C390.89 303.66 390.273 303.03 390.273 302.261C390.273 301.493 390.903 300.875 391.671 300.875C396.359 300.901 401.336 301.253 405.935 301.77C411.025 302.35 415.687 303.156 418.976 303.988C419.719 304.177 420.173 304.933 419.996 305.676C419.807 306.419 419.051 306.873 418.308 306.697C415.12 305.89 410.597 305.109 405.645 304.555C401.096 304.038 396.207 303.698 391.671 303.673L391.659 303.66Z" fill="black"/>
        <path fill-rule="evenodd" clip-rule="evenodd" d="M372.935 335.727H572.972L502.74 484.835H302.715L372.935 335.727Z" fill="white"/>
        <path d="M373.174 334.328H575.404L503.862 486.234H300.75C324.589 435.595 348.441 384.955 372.292 334.328H373.174ZM571.007 337.126H374.056L305.147 483.449H502.097L571.007 337.126Z" fill="black"/>
        <path d="M245.737 486.234C244.969 486.234 244.339 485.604 244.339 484.835C244.339 484.067 244.969 483.437 245.737 483.437H502.752C503.521 483.437 504.151 484.067 504.151 484.835C504.151 485.604 503.521 486.234 502.752 486.234H245.737Z" fill="#1A1A1A"/>
        <path d="M438.076 422.15C444.631 422.15 449.945 416.836 449.945 410.281C449.945 403.726 444.631 398.412 438.076 398.412C431.521 398.412 426.207 403.726 426.207 410.281C426.207 416.836 431.521 422.15 438.076 422.15Z" fill="#8296E6"/>
    </g>
    <g id='download'>
        <path d="M17.5 12.5V13.5C17.5 14.9001 17.5 15.6002 17.2275 16.135C16.9878 16.6054 16.6054 16.9878 16.135 17.2275C15.6002 17.5 14.9001 17.5 13.5 17.5H6.5C5.09987 17.5 4.3998 17.5 3.86502 17.2275C3.39462 16.9878 3.01217 16.6054 2.77248 16.135C2.5 15.6002 2.5 14.9001 2.5 13.5V12.5M14.1667 8.33333L10 12.5M10 12.5L5.83333 8.33333M10 12.5V2.5" stroke="white" stroke-width="2" stroke-linecap="round" stroke-linejoin="round"/>
    </g>
    <g id='banner'>
        <!-- width="630" height="630" viewBox="0 0 630 630" fill="none" xmlns="http://www.w3.org/2000/svg" -->
        <path d="M319.826 83.1222C358.155 59.346 445.549 181.982 376.425 252.869C361.053 268.632 356.492 258.993 336.382 262.307C325.055 264.172 320.443 240.269 269.501 255.238C236.011 265.079 240.912 219.127 193.41 229.849C89.6995 253.247 229.345 76.608 319.838 83.1222H319.826Z" fill="#8296E6"/>
        <path fill-rule="evenodd" clip-rule="evenodd" d="M328.23 82.8198C322.799 92.232 308.486 94.311 295.432 90.2538C281.446 85.9068 274.189 70.6986 279.922 57.2292C283.399 49.0518 289.825 42.0084 299.426 38.2536C309.028 34.4988 319.725 38.5182 324.563 47.5272C330.7 58.9554 332.892 74.7684 328.243 82.8324L328.23 82.8198Z" fill="#8296E6"/>
        <path d="M342.896 183.758C344.03 178.076 346.424 173.59 349.461 170.654C353.896 166.37 359.767 165.236 365.173 168.197C368.348 169.936 371.284 173.162 373.64 178.051C371.574 180.268 369.268 181.138 366.786 181.251C361.342 171.184 352.989 174.208 350.481 184.338C347.76 185.044 345.24 184.64 342.896 183.746V183.758Z" fill="#FFF8F5"/>
        <path d="M344.307 178.807C345.592 175.43 347.369 172.683 349.46 170.654C353.895 166.37 359.767 165.236 365.172 168.197C367.062 169.231 368.864 170.793 370.502 172.91C368.007 174.17 365.324 175.279 362.489 176.198C359.2 174.056 355.697 175.052 353.19 178.34C350.128 178.769 347.129 178.92 344.294 178.794L344.307 178.807Z" fill="white" stroke="black" stroke-width="2.52" stroke-miterlimit="10"/>
        <path fill-rule="evenodd" clip-rule="evenodd" d="M328.809 173.426C324.487 167.744 303.924 161.482 300.358 164.279C299.388 183.834 295.507 209.614 291.45 219.618C302.425 223.121 324.198 221.861 333.711 219.379C328.645 209.903 327.826 180.671 328.809 173.414V173.426Z" fill="white" stroke="#020202" stroke-width="2.52" stroke-miterlimit="10"/>
        <path fill-rule="evenodd" clip-rule="evenodd" d="M349.788 136.546C355.206 135.047 360.902 138.575 362.514 144.409C364.127 150.255 361.053 156.202 355.635 157.689C350.217 159.188 344.522 155.66 342.909 149.827C341.296 143.993 344.37 138.033 349.788 136.546Z" fill="white" stroke="#020202" stroke-width="2.52" stroke-miterlimit="10"/>
        <path fill-rule="evenodd" clip-rule="evenodd" d="M300.346 164.279C279.291 175.342 271.945 133.988 298.582 144.963C305.26 134.618 317.469 132.665 318.603 113.929C323.177 113.614 327.65 113.69 332.01 114.269C342.052 115.592 350.506 122.333 354.236 131.758C364.089 156.656 352.787 182.158 336.747 187.551C325.533 191.331 313.147 181.755 300.333 164.291L300.346 164.279Z" fill="white" stroke="#020202" stroke-width="2.52" stroke-miterlimit="10"/>
        <path d="M287.406 152.8C286.738 153.191 285.894 152.977 285.491 152.309C285.1 151.641 285.314 150.797 285.982 150.394C286.234 150.242 286.499 150.104 286.763 149.978C288.628 149.071 290.669 148.768 292.622 149.31C294.563 149.839 296.365 151.187 297.763 153.544C297.94 153.833 298.103 154.148 298.267 154.476C298.494 154.892 298.519 155.408 298.267 155.849C297.889 156.517 297.032 156.744 296.365 156.366C295.533 155.887 294.752 155.572 294.021 155.383C293.29 155.194 292.597 155.156 291.98 155.219C291.211 155.308 290.531 154.753 290.443 153.985C290.354 153.216 290.909 152.536 291.677 152.447C292.093 152.397 292.509 152.384 292.95 152.41C292.61 152.221 292.257 152.069 291.892 151.969C290.632 151.616 289.271 151.843 287.986 152.46C287.797 152.548 287.608 152.649 287.406 152.775V152.8Z" fill="black"/>
        <path d="M299.174 165.022C298.758 164.367 298.96 163.51 299.615 163.107C300.27 162.691 301.127 162.893 301.53 163.548C303.698 166.988 306.318 170.528 309.481 173.905C312.644 177.269 316.335 180.47 320.67 183.217C321.312 183.632 321.514 184.489 321.098 185.132C320.682 185.774 319.826 185.976 319.183 185.56C314.634 182.662 310.766 179.323 307.465 175.808C304.164 172.292 301.442 168.613 299.187 165.035L299.174 165.022Z" fill="black"/>
        <path d="M266.49 183.317C270.308 177.962 274.882 174.422 279.38 172.809C285.97 170.428 292.572 171.99 296.793 177.584C299.275 180.86 300.813 185.573 300.976 191.734C297.801 193.057 295.004 192.893 292.383 191.86C291.438 178.907 281.371 178.151 274.063 187.475C270.913 186.934 268.494 185.359 266.478 183.33L266.49 183.317Z" fill="#FFF8F5"/>
        <path d="M270.258 178.844C273.156 175.946 276.293 173.918 279.393 172.809C285.982 170.428 292.585 171.99 296.806 177.584C298.28 179.537 299.414 181.982 300.132 184.943C296.97 185.094 293.668 184.993 290.304 184.615C287.898 180.86 283.803 180.256 279.682 182.511C276.306 181.528 273.143 180.293 270.258 178.844Z" fill="white" stroke="black" stroke-width="2.52" stroke-miterlimit="10"/>
        <path fill-rule="evenodd" clip-rule="evenodd" d="M321.313 508.271L292.862 507.641L290.871 587.349C315.97 597.227 465.142 600.692 478.75 573.275C372.305 547.558 383.38 461.639 321.313 508.271Z" fill="white" stroke="black" stroke-width="2.52" stroke-miterlimit="10"/>
        <path fill-rule="evenodd" clip-rule="evenodd" d="M438.581 590.008C459.22 586.656 474.781 581.288 478.75 573.275C462.004 569.23 448.157 563.686 436.489 557.411C435.229 561.645 434.549 566.181 434.549 570.893C434.549 577.76 435.998 584.249 438.581 590.008Z" fill="black" stroke="#231F20" stroke-width="2.52" stroke-miterlimit="10"/>
        <path fill-rule="evenodd" clip-rule="evenodd" d="M344.673 586.013L342.682 506.306C351.061 501.593 454.117 466.326 456.889 459.724C448.989 443.482 446.872 422.024 394.09 408.429C657.758 314.156 645.208 569.243 344.673 586.001V586.013Z" fill="#8296E6"/>
        <path fill-rule="evenodd" clip-rule="evenodd" d="M342.922 515.932L342.683 506.318C351.062 501.606 454.117 466.339 456.889 459.736C448.989 443.495 446.872 422.037 394.091 408.442C487.86 374.913 546.664 385.598 570.037 413.998C538.739 467.347 450.803 507.73 342.922 515.92V515.932Z" fill="#8296E6"/>
        <path fill-rule="evenodd" clip-rule="evenodd" d="M296.629 581.83C313.287 561.884 412.89 511.119 406.716 480.186C397.568 434.284 271.593 410.508 236.263 421.583C38.3672 350.847 -26.8756 521.048 156.782 571.927C193.839 582.196 238.052 583.846 296.617 581.83H296.629Z" fill="#8296E6"/>
        <path fill-rule="evenodd" clip-rule="evenodd" d="M390.916 509.972C401.777 499.225 408.467 488.918 406.729 480.186C397.581 434.284 271.606 410.508 236.276 421.583C144.56 388.798 81.3587 407.786 58.2 442.638C106.168 487.28 197.531 517.457 302.375 517.457C333.321 517.457 363.082 514.823 390.916 509.972Z" fill="#8296E6"/>
        <path fill-rule="evenodd" clip-rule="evenodd" d="M314.232 506.936L342.683 506.306L344.674 586.013C319.574 595.892 170.403 599.357 156.795 571.939C263.24 546.223 252.164 460.303 314.232 506.936Z" fill="white" stroke="black" stroke-width="2.52" stroke-miterlimit="10"/>
        <path fill-rule="evenodd" clip-rule="evenodd" d="M196.964 588.672C176.325 585.32 160.764 579.953 156.795 571.939C173.54 567.895 187.388 562.351 199.055 556.076C200.315 560.309 200.996 564.845 200.996 569.558C200.996 576.425 199.547 582.914 196.964 588.672Z" fill="black" stroke="#231F20" stroke-width="2.52" stroke-miterlimit="10"/>
        <path fill-rule="evenodd" clip-rule="evenodd" d="M245.562 519.158C267.751 496.15 279.62 480.929 314.232 506.936C306.206 518.755 290.922 526.743 273.383 526.743C262.963 526.743 253.349 523.921 245.562 519.158Z" fill="black" stroke="#231F20" stroke-width="2.52" stroke-miterlimit="10"/>
        <path d="M345.732 505.084C345.014 505.373 344.208 505.033 343.918 504.315C343.628 503.597 343.968 502.79 344.686 502.501L472.765 450.261C473.484 449.971 474.29 450.311 474.58 451.03C474.87 451.748 474.529 452.554 473.811 452.844L345.732 505.084Z" fill="white"/>
        <path d="M156.681 459.131C155.963 458.854 155.61 458.048 155.887 457.33C156.165 456.611 156.971 456.259 157.689 456.536L263.391 497.536C264.109 497.813 264.462 498.62 264.184 499.338C263.907 500.056 263.101 500.409 262.383 500.132L156.681 459.131Z" fill="white"/>
        <path fill-rule="evenodd" clip-rule="evenodd" d="M359.1 243.155C365.892 233.541 362.175 218.547 359.541 212.638C327.663 211.113 297.637 209.702 272.198 206.212C267.095 212.965 264.021 234.335 269.791 245.965C210.206 255.793 25.9436 418.03 204.045 458.552C519.12 555.534 600.226 345.278 359.088 243.142L359.1 243.155Z" fill="white" stroke="black" stroke-width="2.52" stroke-miterlimit="10"/>
        <path d="M276.128 247.955C275.435 247.628 275.133 246.796 275.461 246.103C275.788 245.41 276.62 245.108 277.313 245.435C282.076 247.666 292.471 249.593 303.156 250.715C314.029 251.849 325.13 252.139 330.838 251.03C331.594 250.891 332.324 251.383 332.463 252.139C332.602 252.895 332.11 253.625 331.354 253.764C325.382 254.923 313.966 254.646 302.853 253.487C291.904 252.34 281.168 250.324 276.116 247.955H276.128Z" fill="black"/>
        <path d="M235.355 297.574C235.469 296.818 236.187 296.289 236.943 296.402C237.699 296.516 238.228 297.234 238.115 297.99L222.34 409.487C222.226 410.243 221.508 410.773 220.752 410.659C220.147 410.571 219.694 410.092 219.593 409.525C219.278 408.379 217.804 405.052 217.363 403.931C213.129 393.158 203.767 385.157 192.78 380.57C181.73 375.971 169.079 374.825 158.306 377.786C156.946 378.164 155.597 378.605 154.262 379.134C153.544 379.411 152.737 379.058 152.46 378.34C152.183 377.622 152.536 376.816 153.254 376.538C154.64 375.997 156.089 375.518 157.588 375.102C168.953 371.977 182.272 373.174 193.864 378C205.002 382.637 214.578 390.65 219.353 401.436L235.381 297.574H235.355Z" fill="black"/>
        <path d="M384.64 306.823C384.488 306.067 384.967 305.336 385.723 305.172C386.479 305.021 387.21 305.5 387.374 306.256L405.102 391.696C405.253 392.452 404.774 393.183 404.018 393.347C403.262 393.511 402.532 393.019 402.368 392.263L384.64 306.823Z" fill="black"/>
        <path fill-rule="evenodd" clip-rule="evenodd" d="M204.057 458.564L221.395 410.684L268.368 421.659L324.564 456.095C321.464 461.462 319.284 465.998 311.371 466.402C315.454 470.32 322.686 471.933 325.433 474.592C321.628 483.714 305.664 481.118 303.408 479.972C289.082 495.243 263.769 477.25 254.13 473.936C248.296 474.516 214.931 471.089 204.07 458.577L204.057 458.564Z" fill="white" stroke="black" stroke-width="2.52" stroke-miterlimit="10"/>
        <path d="M263.491 456.107C262.849 455.692 262.647 454.835 263.063 454.192C263.479 453.55 264.336 453.348 264.978 453.764L304.139 478.8C304.782 479.216 304.983 480.073 304.567 480.715C304.152 481.358 303.295 481.559 302.652 481.144L263.491 456.107Z" fill="black"/>
        <path d="M269.388 441.013C268.771 440.546 268.645 439.677 269.098 439.06C269.564 438.442 270.434 438.316 271.051 438.77C275.612 442.184 286.763 449.417 297.889 456.41C310.716 464.474 323.467 472.185 325.987 473.319C326.693 473.634 327.008 474.453 326.693 475.159C326.378 475.864 325.559 476.179 324.853 475.864C322.207 474.68 309.317 466.88 296.402 458.779C285.201 451.735 273.974 444.452 269.388 441.025V441.013Z" fill="black"/>
        <path d="M276.721 428.413C276.066 428.009 275.852 427.153 276.255 426.497C276.658 425.842 277.515 425.628 278.17 426.031L325.294 454.898C325.95 455.301 326.164 456.158 325.761 456.813C325.357 457.468 324.501 457.682 323.845 457.279L276.721 428.413Z" fill="black"/>
        <path fill-rule="evenodd" clip-rule="evenodd" d="M402.696 245.36C408.026 248.333 410.395 254.23 407.988 258.527C405.594 262.823 399.319 263.894 394.002 260.921C388.672 257.947 386.304 252.05 388.71 247.754C391.117 243.457 397.379 242.386 402.696 245.36Z" fill="white" stroke="black" stroke-width="2.52" stroke-miterlimit="10"/>
        <path fill-rule="evenodd" clip-rule="evenodd" d="M430.933 254.974C422.579 250.916 399.899 249.026 387.312 251.206C380.319 252.416 383.821 266.087 387.841 267.259C384.842 271.82 384.716 279.644 388.786 285.503C386.505 289.787 387.576 298.507 391.671 302.274C395.943 317.092 403.314 317.671 411.554 318.276L411.126 454.066C491.211 452.239 473.609 359.415 447.489 295.47L430.945 254.961L430.933 254.974Z" fill="white" stroke="black" stroke-width="2.52" stroke-miterlimit="10"/>
        <path d="M387.967 268.645C387.198 268.708 386.53 268.141 386.467 267.372C386.404 266.603 386.971 265.936 387.74 265.873C392.062 265.507 397.518 265.721 402.797 266.2C409.601 266.83 416.14 267.901 419.656 268.796C420.399 268.985 420.853 269.741 420.676 270.484C420.5 271.228 419.731 271.681 418.988 271.492C415.548 270.623 409.185 269.564 402.545 268.96C397.429 268.493 392.15 268.292 387.967 268.645Z" fill="black"/>
        <path d="M388.899 286.852C388.131 286.915 387.463 286.348 387.4 285.579C387.337 284.81 387.904 284.143 388.673 284.08C392.919 283.714 397.959 283.928 402.835 284.42C409.337 285.062 415.523 286.209 419.102 287.116C419.845 287.305 420.299 288.061 420.122 288.805C419.933 289.548 419.177 290.002 418.434 289.825C414.944 288.943 408.896 287.834 402.57 287.204C397.871 286.738 392.994 286.524 388.912 286.877L388.899 286.852Z" fill="black"/>
        <path d="M391.659 303.66C390.89 303.66 390.273 303.03 390.273 302.261C390.273 301.493 390.903 300.875 391.671 300.875C396.359 300.901 401.336 301.253 405.935 301.77C411.025 302.35 415.687 303.156 418.976 303.988C419.719 304.177 420.173 304.933 419.996 305.676C419.807 306.419 419.051 306.873 418.308 306.697C415.12 305.89 410.597 305.109 405.645 304.555C401.096 304.038 396.207 303.698 391.671 303.673L391.659 303.66Z" fill="black"/>
        <path fill-rule="evenodd" clip-rule="evenodd" d="M372.935 335.727H572.972L502.74 484.835H302.715L372.935 335.727Z" fill="white"/>
        <path d="M373.174 334.328H575.404L503.862 486.234H300.75C324.589 435.595 348.441 384.955 372.292 334.328H373.174ZM571.007 337.126H374.056L305.147 483.449H502.097L571.007 337.126Z" fill="black"/>
        <path d="M245.737 486.234C244.969 486.234 244.339 485.604 244.339 484.835C244.339 484.067 244.969 483.437 245.737 483.437H502.752C503.521 483.437 504.151 484.067 504.151 484.835C504.151 485.604 503.521 486.234 502.752 486.234H245.737Z" fill="#1A1A1A"/>
        <path d="M438.076 422.15C444.631 422.15 449.945 416.836 449.945 410.281C449.945 403.726 444.631 398.412 438.076 398.412C431.521 398.412 426.207 403.726 426.207 410.281C426.207 416.836 431.521 422.15 438.076 422.15Z" fill="#8296E6"/>
    </g>
    <g id='discord'>
        <path d="M8.23997 8.39001C7.66997 8.39001 7.21997 8.89001 7.21997 9.50001C7.21997 10.11 7.67997 10.61 8.23997 10.61C8.80997 10.61 9.25997 10.11 9.25997 9.50001C9.26997 8.89001 8.80997 8.39001 8.23997 8.39001ZM11.89 8.39001C11.32 8.39001 10.87 8.89001 10.87 9.50001C10.87 10.11 11.33 10.61 11.89 10.61C12.46 10.61 12.91 10.11 12.91 9.50001C12.91 8.89001 12.46 8.39001 11.89 8.39001Z" fill="black"/>
        <path d="M16.75 0H3.35005C2.22005 0 1.30005 0.92 1.30005 2.06V15.58C1.30005 16.72 2.22005 17.64 3.35005 17.64H14.69L14.16 15.79L15.44 16.98L16.65 18.1L18.8 20V2.06C18.8 0.92 17.88 0 16.75 0ZM12.89 13.06C12.89 13.06 12.53 12.63 12.23 12.25C13.54 11.88 14.04 11.06 14.04 11.06C13.63 11.33 13.24 11.52 12.89 11.65C12.39 11.86 11.91 12 11.44 12.08C10.48 12.26 9.60005 12.21 8.85005 12.07C8.28005 11.96 7.79005 11.8 7.38005 11.64C7.15005 11.55 6.90005 11.44 6.65005 11.3C6.62005 11.28 6.59005 11.27 6.56005 11.25C6.54005 11.24 6.53005 11.23 6.52005 11.22C6.34005 11.12 6.24005 11.05 6.24005 11.05C6.24005 11.05 6.72005 11.85 7.99005 12.23C7.69005 12.61 7.32005 13.06 7.32005 13.06C5.11005 12.99 4.27005 11.54 4.27005 11.54C4.27005 8.32 5.71005 5.71 5.71005 5.71C7.15005 4.63 8.52005 4.66 8.52005 4.66L8.62005 4.78C6.82005 5.3 5.99005 6.09 5.99005 6.09C5.99005 6.09 6.21005 5.97 6.58005 5.8C7.65005 5.33 8.50005 5.2 8.85005 5.17C8.91005 5.16 8.96005 5.15 9.02005 5.15C9.63005 5.07 10.32 5.05 11.04 5.13C11.99 5.24 13.01 5.52 14.05 6.09C14.05 6.09 13.26 5.34 11.5601 4.82L11.7 4.66C11.7 4.66 13.07 4.63 14.51 5.71C14.51 5.71 15.95 8.32 15.95 11.54C15.95 11.54 15.1 12.99 12.89 13.06Z" fill="black"/>
    </g>
</svg>